<?xml version="1.0" encoding="UTF-8"?>
<!DOCTYPE svg PUBLIC "-//W3C//DTD SVG 1.1//EN" "http://www.w3.org/Graphics/SVG/1.1/DTD/svg11.dtd">
<svg xmlns="http://www.w3.org/2000/svg" version="1.1" width="60px" height="55px" style="shape-rendering:geometricPrecision; text-rendering:geometricPrecision; image-rendering:optimizeQuality; fill-rule:evenodd; clip-rule:evenodd" xmlns:xlink="http://www.w3.org/1999/xlink">
<g><path style="opacity:0.918" fill="#fefffe" d="M 59.5,11.5 C 59.5,21.8333 59.5,32.1667 59.5,42.5C 58.6364,43.6883 57.6364,44.8549 56.5,46C 38.1667,46.6667 19.8333,46.6667 1.5,46C 0.955796,45.2828 0.28913,44.7828 -0.5,44.5C -0.5,32.5 -0.5,20.5 -0.5,8.5C 18.4565,7.3587 37.4565,7.19203 56.5,8C 57.6364,9.14508 58.6364,10.3117 59.5,11.5 Z M 9.5,13.5 C 22.3268,12.3398 35.3268,12.1731 48.5,13C 42,19.5 35.5,26 29,32.5C 22.6315,25.964 16.1315,19.6306 9.5,13.5 Z M 4.5,16.5 C 8.47896,19.8123 12.1456,23.479 15.5,27.5C 12.1824,31.3181 8.68241,34.9848 5,38.5C 4.50034,31.1742 4.33368,23.8409 4.5,16.5 Z M 52.5,16.5 C 53.6552,23.6549 53.8218,30.9882 53,38.5C 49.3176,34.9848 45.8176,31.3181 42.5,27.5C 45.8554,23.8133 49.1887,20.1466 52.5,16.5 Z M 19.5,31.5 C 25.6688,39.4529 31.8355,39.4529 38,31.5C 41.1667,34.6667 44.3333,37.8333 47.5,41C 35.1667,41.6667 22.8333,41.6667 10.5,41C 13.7044,37.9641 16.7044,34.7974 19.5,31.5 Z"/></g>
</svg>
