<?xml version="1.0" encoding="UTF-8"?>
<!DOCTYPE svg PUBLIC "-//W3C//DTD SVG 1.1//EN" "http://www.w3.org/Graphics/SVG/1.1/DTD/svg11.dtd">
<svg xmlns="http://www.w3.org/2000/svg" version="1.1" width="55px" height="60px" style="shape-rendering:geometricPrecision; text-rendering:geometricPrecision; image-rendering:optimizeQuality; fill-rule:evenodd; clip-rule:evenodd" xmlns:xlink="http://www.w3.org/1999/xlink">
<g><path style="opacity:0.866" fill="#fefffe" d="M 26.5,-0.5 C 28.5,-0.5 30.5,-0.5 32.5,-0.5C 41.8949,2.88708 49.2283,8.88708 54.5,17.5C 54.5,21.1667 54.5,24.8333 54.5,28.5C 53.1667,28.5 51.8333,28.5 50.5,28.5C 47.3942,15.0609 39.0608,7.06092 25.5,4.5C 25.6287,2.7839 25.962,1.11723 26.5,-0.5 Z"/></g>
<g><path style="opacity:0.957" fill="#fefffe" d="M 43.5,59.5 C 39.8333,59.5 36.1667,59.5 32.5,59.5C 18.4855,53.8264 7.48546,44.4931 -0.5,31.5C -0.5,23.8333 -0.5,16.1667 -0.5,8.5C 2.52607,4.6594 6.19274,3.82607 10.5,6C 14.2565,9.0858 17.2565,12.7525 19.5,17C 17.8771,20.2825 15.8771,23.2825 13.5,26C 17.2687,33.4362 22.7687,39.2696 30,43.5C 31.8333,41.6667 33.6667,39.8333 35.5,38C 37.5,37.3333 39.5,37.3333 41.5,38C 53.7758,44.488 54.4425,51.6547 43.5,59.5 Z"/></g>
<g><path style="opacity:0.883" fill="#fefefe" d="M 25.5,11.5 C 36.2126,12.0423 42.8793,17.5423 45.5,28C 43.3168,29.6941 40.9835,29.8607 38.5,28.5C 36.7371,22.2812 32.7371,18.2812 26.5,16.5C 25.5481,14.9547 25.2148,13.288 25.5,11.5 Z"/></g>
</svg>
