<?xml version="1.0" encoding="UTF-8"?>
<!DOCTYPE svg PUBLIC "-//W3C//DTD SVG 1.1//EN" "http://www.w3.org/Graphics/SVG/1.1/DTD/svg11.dtd">
<svg xmlns="http://www.w3.org/2000/svg" version="1.1" width="335px" height="60px" style="shape-rendering:geometricPrecision; text-rendering:geometricPrecision; image-rendering:optimizeQuality; fill-rule:evenodd; clip-rule:evenodd" xmlns:xlink="http://www.w3.org/1999/xlink">
<g><path style="opacity:0.6" fill="#090909" d="M 277.5,0.5 C 281.911,0.020954 286.078,0.687621 290,2.5C 289.552,7.95928 287.386,12.7926 283.5,17C 287.7,19.5673 290.867,23.0673 293,27.5C 298.076,39.0084 295.243,48.8417 284.5,57C 273.831,60.7168 264.664,58.5501 257,50.5C 250.546,35.8802 254.213,24.5468 268,16.5C 269.605,10.1199 272.771,4.78655 277.5,0.5 Z M 271.5,31.5 C 273.604,31.2011 275.604,31.5344 277.5,32.5C 278.803,36.0316 278.803,39.5316 277.5,43C 272.473,44.3131 270.14,42.3131 270.5,37C 270.696,35.1216 271.029,33.2883 271.5,31.5 Z"/></g>
<g><path style="opacity:0.566" fill="#090909" d="M 131.5,3.5 C 131.5,4.83333 132.167,5.5 133.5,5.5C 135.831,9.5721 135.498,13.7388 132.5,18C 132.833,18.5 133.167,19 133.5,19.5C 134.814,18.6872 135.981,17.6872 137,16.5C 137.452,13.8506 138.286,11.3506 139.5,9C 142.935,7.30107 146.435,5.80107 150,4.5C 150.772,5.84905 151.939,6.68238 153.5,7C 153.322,9.95456 153.322,13.1212 153.5,16.5C 155.288,16.2148 156.955,16.5481 158.5,17.5C 159.09,18.7989 160.09,19.6322 161.5,20C 161.957,23.1066 161.457,26.2732 160,29.5C 157.959,30.4231 155.792,30.7564 153.5,30.5C 153.5,34.8333 153.5,39.1667 153.5,43.5C 154.93,43.5792 156.264,43.2458 157.5,42.5C 158.421,44.756 160.088,45.756 162.5,45.5C 162.168,36.4754 162.502,27.4754 163.5,18.5C 168.548,15.6347 173.381,15.9681 178,19.5C 178.333,27.1667 178.667,34.8333 179,42.5C 180.113,43.7111 181.28,43.7111 182.5,42.5C 183.096,34.4464 183.93,26.4464 185,18.5C 186.822,16.9546 188.989,16.288 191.5,16.5C 194.308,16.5186 196.641,17.5186 198.5,19.5C 198.858,31.9028 199.358,44.2362 200,56.5C 195.693,59.0351 191.026,59.0351 186,56.5C 179.52,59.4371 173.353,59.1037 167.5,55.5C 167.938,55.5654 168.272,55.3988 168.5,55C 167.529,53.5187 166.196,52.6854 164.5,52.5C 163.68,50.8599 162.847,49.1932 162,47.5C 161.667,50.1667 161.333,52.8333 161,55.5C 160.097,56.7014 158.931,57.5348 157.5,58C 151.647,59.3237 146.313,58.3237 141.5,55C 140.107,53.8289 139.273,52.3289 139,50.5C 138.001,43.8666 137.168,37.1999 136.5,30.5C 134.622,29.339 133.622,30.0056 133.5,32.5C 133.171,39.5357 133.504,46.369 134.5,53C 129.649,59.7217 123.982,60.2217 117.5,54.5C 116.618,55.7598 115.618,56.9264 114.5,58C 110.467,58.3504 106.633,58.5171 103,58.5C 99.8405,57.4264 97.5072,55.4264 96,52.5C 94.4898,45.0749 93.9898,37.7415 94.5,30.5C 91.715,29.9162 90.0483,30.9162 89.5,33.5C 88.6043,32.4937 87.9377,32.4937 87.5,33.5C 86.1667,33.8333 86.1667,34.1667 87.5,34.5C 87.8333,34.5 88.1667,34.5 88.5,34.5C 94.4146,42.3225 93.748,49.4892 86.5,56C 77.6816,59.5605 69.0149,59.2272 60.5,55C 57.6773,49.8662 58.0106,44.5329 61.5,39C 56.0602,24.594 61.0602,16.7606 76.5,15.5C 81.5184,15.8935 86.0184,17.5602 90,20.5C 90.4012,18.4788 91.5679,17.1455 93.5,16.5C 94.2733,14.187 94.9399,11.8537 95.5,9.5C 98.768,7.35464 102.268,5.68797 106,4.5C 109.585,7.2547 110.752,10.7547 109.5,15C 113.467,15.6283 116.301,17.795 118,21.5C 118.645,20.354 119.478,19.354 120.5,18.5C 119.167,16.5 117.833,14.5 116.5,12.5C 116.624,11.8933 116.957,11.56 117.5,11.5C 118.625,10.6522 118.625,9.65225 117.5,8.5C 120.224,1.39647 124.89,-0.270193 131.5,3.5 Z M 117.5,42.5 C 117.5,43.1667 117.5,43.8333 117.5,44.5C 117.565,44.9382 117.399,45.2716 117,45.5C 115.667,44.8333 114.667,43.8333 114,42.5C 112.022,43.8163 110.522,43.3163 109.5,41C 110.456,37.6064 110.789,34.1064 110.5,30.5C 113.044,30.8957 115.211,30.229 117,28.5C 118.273,33.2024 118.44,37.8691 117.5,42.5 Z"/></g>
<g><path style="opacity:0.544" fill="#0a0a0a" d="M 237.5,6.5 C 238.5,6.16667 239.167,5.5 239.5,4.5C 239.953,3.54163 240.619,2.7083 241.5,2C 251.666,0.843147 255.5,5.34315 253,15.5C 252.308,16.0253 251.808,16.6919 251.5,17.5C 252.093,19.3817 252.76,21.2151 253.5,23C 252.167,26 252.167,29 253.5,32C 252.819,40.1362 252.152,48.3028 251.5,56.5C 247.902,58.76 244.069,59.0934 240,57.5C 239.055,57.0946 238.388,56.428 238,55.5C 237.833,49.3333 237.667,43.1667 237.5,37C 237.522,30.4259 238.189,24.0925 239.5,18C 236.5,14.4696 235.833,10.6362 237.5,6.5 Z"/></g>
<g><path style="opacity:0.008" fill="#bdbdbd" d="M 131.5,3.5 C 132.5,3.83333 133.167,4.5 133.5,5.5C 132.167,5.5 131.5,4.83333 131.5,3.5 Z"/></g>
<g><path style="opacity:0.004" fill="#dddddd" d="M 239.5,4.5 C 239.167,5.5 238.5,6.16667 237.5,6.5C 237.5,5.16667 238.167,4.5 239.5,4.5 Z"/></g>
<g><path style="opacity:0.578" fill="#0c0c0c" d="M 3.5,5.5 C 6.51838,5.33537 9.51838,5.50204 12.5,6C 14.259,7.00803 15.4257,8.50803 16,10.5C 15.882,25.3721 16.0486,40.0388 16.5,54.5C 13.8133,58.3137 10.1467,59.4804 5.5,58C 3.15175,57.8898 1.65175,56.7231 1,54.5C 0.333333,39.1667 0.333333,23.8333 1,8.5C 2.04499,7.62656 2.87833,6.62656 3.5,5.5 Z"/></g>
<g><path style="opacity:0.012" fill="#939393" d="M 117.5,8.5 C 118.625,9.65225 118.625,10.6522 117.5,11.5C 116.375,10.3478 116.375,9.34775 117.5,8.5 Z"/></g>
<g><path style="opacity:0.568" fill="#090909" d="M 40.5,15.5 C 49.0196,15.5492 54.6862,19.5492 57.5,27.5C 57.9749,37.0678 57.4749,46.7345 56,56.5C 50.7891,59.436 45.9558,58.936 41.5,55C 41.8333,54.6667 42.1667,54.3333 42.5,54C 41.6851,46.9133 41.1851,39.7466 41,32.5C 39.8869,31.2889 38.7202,31.2889 37.5,32.5C 36.9388,40.5811 36.1054,48.5811 35,56.5C 31.3351,58.2754 27.6684,58.942 24,58.5C 22.5962,56.6061 21.4295,54.6061 20.5,52.5C 20.3044,41.4465 20.3044,30.2798 20.5,19C 20.9054,18.0546 21.572,17.3879 22.5,17C 26.444,16.0105 30.1106,16.5105 33.5,18.5C 35.8852,17.3385 38.2186,16.3385 40.5,15.5 Z"/></g>
<g><path style="opacity:0.552" fill="#0a0a0a" d="M 219.5,15.5 C 223.979,15.5359 228.312,16.3693 232.5,18C 237.825,24.0513 237.658,29.218 232,33.5C 227.965,31.5582 223.798,31.2249 219.5,32.5C 215.573,40.5111 217.906,44.0111 226.5,43C 228.519,42.5503 230.352,41.717 232,40.5C 233.395,42.1123 234.895,43.6123 236.5,45C 236.333,48.1667 236.167,51.3333 236,54.5C 228.685,58.8961 220.851,59.7295 212.5,57C 207.913,54.7485 204.747,51.2485 203,46.5C 199.106,30.9458 204.606,20.6125 219.5,15.5 Z"/></g>
<g><path style="opacity:0.573" fill="#080808" d="M 334.5,27.5 C 334.5,27.8333 334.5,28.1667 334.5,28.5C 333.167,29.1667 333.167,29.8333 334.5,30.5C 334.5,32.5 334.5,34.5 334.5,36.5C 333.167,37.1667 333.167,37.8333 334.5,38.5C 334.5,39.5 334.5,40.5 334.5,41.5C 333.167,42.1667 333.167,42.8333 334.5,43.5C 334.5,44.1667 334.5,44.8333 334.5,45.5C 333.167,45.8333 333.167,46.1667 334.5,46.5C 334.5,48.1667 334.5,49.8333 334.5,51.5C 333.167,51.8333 333.167,52.1667 334.5,52.5C 334.5,52.8333 334.5,53.1667 334.5,53.5C 333.167,53.8333 333.167,54.1667 334.5,54.5C 334.5,54.8333 334.5,55.1667 334.5,55.5C 329.551,59.0741 324.384,59.4074 319,56.5C 318.727,54.8988 318.227,53.3988 317.5,52C 317.438,45.275 317.605,38.775 318,32.5C 316.293,31.8617 314.46,31.8617 312.5,32.5C 312.831,40.5277 312.498,48.5277 311.5,56.5C 307.016,59.0049 302.516,59.0049 298,56.5C 297.816,48.9205 297.316,41.4205 296.5,34C 297.378,29.9997 297.045,25.9997 295.5,22C 296.322,17.841 298.822,16.0077 303,16.5C 305.713,16.411 308.213,17.0776 310.5,18.5C 321.472,13.655 329.472,16.655 334.5,27.5 Z"/></g>
<g><path style="opacity:0.004" fill="#fefffe" d="M 89.5,33.5 C 89.5,34.1667 89.1667,34.5 88.5,34.5C 88.1667,34.5 87.8333,34.5 87.5,34.5C 87.5,34.1667 87.5,33.8333 87.5,33.5C 87.9377,32.4937 88.6043,32.4937 89.5,33.5 Z"/></g>
<g><path style="opacity:0.012" fill="#7b7b7b" d="M 117.5,42.5 C 118.649,42.7911 119.316,43.6244 119.5,45C 119.167,45.8333 118.833,46.6667 118.5,47.5C 118.407,46.5281 118.074,45.5281 117.5,44.5C 117.5,43.8333 117.5,43.1667 117.5,42.5 Z"/></g>
<g><path style="opacity:0.012" fill="#848484" d="M 164.5,52.5 C 166.196,52.6854 167.529,53.5187 168.5,55C 168.272,55.3988 167.938,55.5654 167.5,55.5C 166.167,54.8333 165.167,53.8333 164.5,52.5 Z"/></g>
</svg>
