<?xml version="1.0" encoding="UTF-8"?>
<!DOCTYPE svg PUBLIC "-//W3C//DTD SVG 1.1//EN" "http://www.w3.org/Graphics/SVG/1.1/DTD/svg11.dtd">
<svg xmlns="http://www.w3.org/2000/svg" version="1.1" width="250px" height="237px" style="shape-rendering:geometricPrecision; text-rendering:geometricPrecision; image-rendering:optimizeQuality; fill-rule:evenodd; clip-rule:evenodd" xmlns:xlink="http://www.w3.org/1999/xlink">
<g><path style="opacity:0.998" fill="#fcfdfd" d="M -0.5,-0.5 C 28.8333,-0.5 58.1667,-0.5 87.5,-0.5C 79.9519,2.25719 72.2853,5.09052 64.5,8C 43.8173,19.8943 30.8173,37.3943 25.5,60.5C 22.9972,64.2949 21.8306,68.6282 22,73.5C 21.3333,79.8333 21.3333,86.1667 22,92.5C 22.2784,93.4158 22.7784,94.0825 23.5,94.5C 26.2481,115.664 35.5815,133.33 51.5,147.5C 52.6709,145.831 54.0042,144.331 55.5,143C 55.2568,142.098 54.9234,141.265 54.5,140.5C 51.3109,133.975 46.9775,128.308 41.5,123.5C 39.3667,118.599 37.5334,113.599 36,108.5C 34.6667,107.833 33.6667,106.833 33,105.5C 32.333,97.4833 31.4997,89.3166 30.5,81C 30.8211,78.7188 31.4878,76.5522 32.5,74.5C 31.6381,70.5474 31.3048,66.5474 31.5,62.5C 33.4657,51.9001 37.6324,42.2334 44,33.5C 46.0627,31.2659 48.2294,29.2659 50.5,27.5C 57.1356,24.7043 62.8022,20.5376 67.5,15C 78.103,11.4899 88.9364,9.3232 100,8.5C 110.759,9.39764 121.259,11.3976 131.5,14.5C 140.142,18.966 147.809,24.7994 154.5,32C 156.044,31.5134 157.71,31.0134 159.5,30.5C 157.541,26.0188 154.541,22.1854 150.5,19C 145.5,15.3333 140.5,11.6667 135.5,8C 126.51,4.67753 117.51,1.8442 108.5,-0.5C 155.5,-0.5 202.5,-0.5 249.5,-0.5C 249.5,70.1667 249.5,140.833 249.5,211.5C 248.869,209.097 247.869,206.764 246.5,204.5C 243.665,207.12 242.332,210.453 242.5,214.5C 241.218,215.708 241.218,217.042 242.5,218.5C 244.615,216.385 246.949,216.051 249.5,217.5C 249.5,223.833 249.5,230.167 249.5,236.5C 232.833,236.5 216.167,236.5 199.5,236.5C 199.5,235.5 199.5,234.5 199.5,233.5C 198.127,233.657 196.793,233.49 195.5,233C 197.377,230.874 198.377,228.374 198.5,225.5C 192.792,225.492 192.459,225.992 197.5,227C 195.15,229.869 193.484,233.035 192.5,236.5C 191.5,236.5 190.5,236.5 189.5,236.5C 189.5,235.5 189.5,234.5 189.5,233.5C 188.022,233.762 186.689,233.429 185.5,232.5C 186.325,231.614 187.325,231.281 188.5,231.5C 188.5,230.5 188.5,229.5 188.5,228.5C 184.544,227.947 184.544,227.114 188.5,226C 186.866,225.506 185.199,225.34 183.5,225.5C 183.5,229.167 183.5,232.833 183.5,236.5C 182.167,236.5 180.833,236.5 179.5,236.5C 179.815,232.629 179.482,228.962 178.5,225.5C 177.833,225.5 177.167,225.5 176.5,225.5C 175.655,226.671 174.989,228.005 174.5,229.5C 173.611,229.187 172.945,228.02 172.5,226C 171.552,225.517 170.552,225.351 169.5,225.5C 169.5,229.167 169.5,232.833 169.5,236.5C 167.5,236.5 165.5,236.5 163.5,236.5C 164.851,234.608 165.518,232.442 165.5,230C 164.525,227.422 163.359,224.922 162,222.5C 155.388,226.682 154.888,231.349 160.5,236.5C 157.833,236.5 155.167,236.5 152.5,236.5C 153.15,234.565 153.483,232.565 153.5,230.5C 152.5,230.5 151.5,230.5 150.5,230.5C 150.646,232.942 149.813,233.609 148,232.5C 146.643,228.857 147.81,226.69 151.5,226C 149.765,225.349 148.098,225.515 146.5,226.5C 144.859,230.37 145.526,233.703 148.5,236.5C 144.833,236.5 141.167,236.5 137.5,236.5C 137.5,235.5 137.5,234.5 137.5,233.5C 133.5,232.833 133.5,232.167 137.5,231.5C 137.5,230.5 137.5,229.5 137.5,228.5C 133.544,227.947 133.544,227.114 137.5,226C 135.866,225.506 134.199,225.34 132.5,225.5C 132.5,229.167 132.5,232.833 132.5,236.5C 130.167,236.5 127.833,236.5 125.5,236.5C 130.7,229.394 129.033,225.727 120.5,225.5C 120.5,229.167 120.5,232.833 120.5,236.5C 113.5,236.5 106.5,236.5 99.5,236.5C 101.463,233.482 101.963,230.149 101,226.5C 98.9592,225.577 96.7925,225.244 94.5,225.5C 94.5,229.167 94.5,232.833 94.5,236.5C 85.8333,236.5 77.1667,236.5 68.5,236.5C 68.7373,235.209 68.404,234.209 67.5,233.5C 67.1667,230.833 66.8333,228.167 66.5,225.5C 62.9909,225.808 61.3243,227.808 61.5,231.5C 60.0687,232.78 59.4021,234.447 59.5,236.5C 58.5,236.5 57.5,236.5 56.5,236.5C 56.5,235.5 56.5,234.5 56.5,233.5C 51.6724,233.615 50.3391,231.448 52.5,227C 53.8333,226.667 55.1667,226.333 56.5,226C 52.2288,224.487 49.8954,225.987 49.5,230.5C 49.9837,232.801 50.9837,234.801 52.5,236.5C 34.8333,236.5 17.1667,236.5 -0.5,236.5C -0.5,230.5 -0.5,224.5 -0.5,218.5C 1.83333,218.5 4.16667,218.5 6.5,218.5C 6.5,217.5 6.5,216.5 6.5,215.5C 4.83333,215.5 3.16667,215.5 1.5,215.5C 1.5,214.5 1.5,213.5 1.5,212.5C 2.5,212.5 3.5,212.5 4.5,212.5C 4.5,211.5 4.5,210.5 4.5,209.5C 3.32496,209.719 2.32496,209.386 1.5,208.5C 3.50961,207.935 5.17627,206.935 6.5,205.5C 4.25731,204.526 1.92397,204.192 -0.5,204.5C -0.5,136.167 -0.5,67.8333 -0.5,-0.5 Z"/></g>
<g><path style="opacity:1" fill="#8ec7e2" d="M 87.5,-0.5 C 94.5,-0.5 101.5,-0.5 108.5,-0.5C 117.51,1.8442 126.51,4.67753 135.5,8C 140.5,11.6667 145.5,15.3333 150.5,19C 154.541,22.1854 157.541,26.0188 159.5,30.5C 157.71,31.0134 156.044,31.5134 154.5,32C 147.809,24.7994 140.142,18.966 131.5,14.5C 130.942,13.2101 129.942,12.3768 128.5,12C 122.93,10.8697 117.596,9.20303 112.5,7C 103.5,6.33333 94.5,6.33333 85.5,7C 79.3766,9.78537 73.0432,12.1187 66.5,14C 63.5165,16.8258 60.1832,19.1591 56.5,21C 54.2941,23.0367 52.2941,25.2034 50.5,27.5C 48.2294,29.2659 46.0627,31.2659 44,33.5C 37.6324,42.2334 33.4657,51.9001 31.5,62.5C 29.87,64.0261 29.0367,66.0261 29,68.5C 26.094,92.5485 31.7606,114.215 46,133.5C 48.8518,135.951 51.6851,138.285 54.5,140.5C 54.9234,141.265 55.2568,142.098 55.5,143C 54.0042,144.331 52.6709,145.831 51.5,147.5C 35.5815,133.33 26.2481,115.664 23.5,94.5C 23.0415,83.0707 23.7082,71.7374 25.5,60.5C 30.8173,37.3943 43.8173,19.8943 64.5,8C 72.2853,5.09052 79.9519,2.25719 87.5,-0.5 Z"/></g>
<g><path style="opacity:1" fill="#eafafc" d="M 131.5,14.5 C 121.259,11.3976 110.759,9.39764 100,8.5C 88.9364,9.3232 78.103,11.4899 67.5,15C 62.8022,20.5376 57.1356,24.7043 50.5,27.5C 52.2941,25.2034 54.2941,23.0367 56.5,21C 60.1832,19.1591 63.5165,16.8258 66.5,14C 73.0432,12.1187 79.3766,9.78537 85.5,7C 94.5,6.33333 103.5,6.33333 112.5,7C 117.596,9.20303 122.93,10.8697 128.5,12C 129.942,12.3768 130.942,13.2101 131.5,14.5 Z"/></g>
<g><path style="opacity:1" fill="#2a93cf" d="M 106.5,59.5 C 104.833,59.5 103.167,59.5 101.5,59.5C 101.5,60.5 101.5,61.5 101.5,62.5C 100.5,62.5 99.5,62.5 98.5,62.5C 98.5,59.8333 98.5,57.1667 98.5,54.5C 96.8333,54.5 95.1667,54.5 93.5,54.5C 93.5,53.5 93.5,52.5 93.5,51.5C 98.0756,49.9621 102.409,48.2954 106.5,46.5C 106.842,45.6618 107.508,45.3284 108.5,45.5C 111.601,45.3083 114.601,44.6416 117.5,43.5C 117.654,44.9091 117.821,46.5758 118,48.5C 119.011,47.6634 120.178,47.33 121.5,47.5C 121.607,49.9032 120.607,51.7365 118.5,53C 120.32,53.9794 121.487,55.4794 122,57.5C 122.494,67.8567 122.828,78.1901 123,88.5C 121.294,87.6921 120.461,86.3588 120.5,84.5C 117.984,84.7553 115.65,85.5886 113.5,87C 114.841,88.8265 114.341,89.9931 112,90.5C 109.677,88.848 107.344,87.1813 105,85.5C 105.379,83.925 105.212,82.425 104.5,81C 105.167,80 105.833,79 106.5,78C 109.199,78.4382 111.865,78.2716 114.5,77.5C 113.07,74.3016 111.404,71.3016 109.5,68.5C 112.848,65.5301 115.515,61.8634 117.5,57.5C 116.635,56.4173 115.635,56.2506 114.5,57C 112.627,60.6354 110.294,61.1354 107.5,58.5C 106.893,58.6236 106.56,58.9569 106.5,59.5 Z"/></g>
<g><path style="opacity:1" fill="#b6e2ee" d="M 146.5,44.5 C 146.833,44.5 147.167,44.5 147.5,44.5C 147.5,81.5 147.5,118.5 147.5,155.5C 145.691,156.291 143.691,156.291 141.5,155.5C 141.5,155.167 141.5,154.833 141.5,154.5C 143.167,154.5 144.833,154.5 146.5,154.5C 146.5,117.833 146.5,81.1667 146.5,44.5 Z"/></g>
<g><path style="opacity:1" fill="#4799c3" d="M 106.5,46.5 C 102.409,48.2954 98.0756,49.9621 93.5,51.5C 93.5,52.5 93.5,53.5 93.5,54.5C 95.1667,54.5 96.8333,54.5 98.5,54.5C 98.5,57.1667 98.5,59.8333 98.5,62.5C 99.5,62.5 100.5,62.5 101.5,62.5C 101.5,61.5 101.5,60.5 101.5,59.5C 103.167,59.5 104.833,59.5 106.5,59.5C 107.289,59.7828 107.956,60.2828 108.5,61C 108.177,66.5171 107.177,71.6838 105.5,76.5C 106.441,71.9296 106.774,67.263 106.5,62.5C 103.491,62.7234 100.824,63.7234 98.5,65.5C 96.5977,62.6627 95.931,59.3293 96.5,55.5C 94.4352,55.5172 92.4352,55.8505 90.5,56.5C 90.5,54.1667 90.5,51.8333 90.5,49.5C 95.8333,48.5 101.167,47.5 106.5,46.5 Z"/></g>
<g><path style="opacity:1" fill="#bfdbe6" d="M 52.5,43.5 C 52.5,43.8333 52.5,44.1667 52.5,44.5C 51.5036,60.3246 51.1703,76.3246 51.5,92.5C 50.8336,84.507 50.5003,76.3403 50.5,68C 50.5021,59.4716 51.1688,51.3049 52.5,43.5 Z"/></g>
<g><path style="opacity:1" fill="#86b5c9" d="M 52.5,44.5 C 52.5,60.5 52.5,76.5 52.5,92.5C 65.0182,96.4216 77.5182,100.422 90,104.5C 95.0335,103.883 99.5335,102.216 103.5,99.5C 104.167,99.5 104.833,99.5 105.5,99.5C 105.5,100.5 105.5,101.5 105.5,102.5C 100.238,103.441 95.0713,104.774 90,106.5C 77.7121,103.053 65.5454,99.2197 53.5,95C 52.6195,94.2917 51.9528,93.4584 51.5,92.5C 51.1703,76.3246 51.5036,60.3246 52.5,44.5 Z"/></g>
<g><path style="opacity:1" fill="#3293ca" d="M 122.5,39.5 C 123.492,39.3284 124.158,39.6618 124.5,40.5C 124.5,56.8333 124.5,73.1667 124.5,89.5C 116.447,91.427 108.78,94.0936 101.5,97.5C 98.1879,97.9927 95.0212,98.9927 92,100.5C 90.6898,99.8699 89.8565,98.8699 89.5,97.5C 90.1495,95.5648 90.4828,93.5648 90.5,91.5C 92.4352,90.8505 94.4352,90.5172 96.5,90.5C 96.5,86.5 96.5,82.5 96.5,78.5C 99.4261,77.5392 102.426,76.8726 105.5,76.5C 107.177,71.6838 108.177,66.5171 108.5,61C 107.956,60.2828 107.289,59.7828 106.5,59.5C 106.56,58.9569 106.893,58.6236 107.5,58.5C 110.294,61.1354 112.627,60.6354 114.5,57C 115.635,56.2506 116.635,56.4173 117.5,57.5C 115.515,61.8634 112.848,65.5301 109.5,68.5C 111.404,71.3016 113.07,74.3016 114.5,77.5C 111.865,78.2716 109.199,78.4382 106.5,78C 105.833,79 105.167,80 104.5,81C 105.212,82.425 105.379,83.925 105,85.5C 107.344,87.1813 109.677,88.848 112,90.5C 114.341,89.9931 114.841,88.8265 113.5,87C 115.65,85.5886 117.984,84.7553 120.5,84.5C 120.461,86.3588 121.294,87.6921 123,88.5C 122.828,78.1901 122.494,67.8567 122,57.5C 121.487,55.4794 120.32,53.9794 118.5,53C 120.607,51.7365 121.607,49.9032 121.5,47.5C 120.178,47.33 119.011,47.6634 118,48.5C 117.821,46.5758 117.654,44.9091 117.5,43.5C 114.601,44.6416 111.601,45.3083 108.5,45.5C 108.47,44.5028 108.97,43.8361 110,43.5C 114.373,42.4299 118.539,41.0966 122.5,39.5 Z"/></g>
<g><path style="opacity:1" fill="#a0ebf3" d="M 55.5,42.5 C 55.1705,58.0091 55.5038,73.3424 56.5,88.5C 58.5078,90.0826 60.8411,91.0826 63.5,91.5C 60.1667,91.5 56.8333,91.5 53.5,91.5C 53.8296,75.6578 53.4963,59.9911 52.5,44.5C 52.5,44.1667 52.5,43.8333 52.5,43.5C 53.391,42.8902 54.391,42.5569 55.5,42.5 Z"/></g>
<g><path style="opacity:1" fill="#5fc5b5" d="M 64.5,40.5 C 61.8333,40.5 59.1667,40.5 56.5,40.5C 56.5,56.5 56.5,72.5 56.5,88.5C 55.5038,73.3424 55.1705,58.0091 55.5,42.5C 55.5,41.1667 55.5,39.8333 55.5,38.5C 58.6888,38.8583 61.6888,39.525 64.5,40.5 Z"/></g>
<g><path style="opacity:1" fill="#96d0ea" d="M 124.5,40.5 C 126.104,41.287 126.771,42.6203 126.5,44.5C 127.822,44.33 128.989,44.6634 130,45.5C 130.333,57.8333 130.667,70.1667 131,82.5C 132.616,81.1991 134.116,81.1991 135.5,82.5C 132.331,83.0025 129.998,84.6691 128.5,87.5C 127.395,88.6005 126.062,89.2671 124.5,89.5C 124.5,73.1667 124.5,56.8333 124.5,40.5 Z"/></g>
<g><path style="opacity:1" fill="#e4fdfe" d="M 173.5,63.5 C 172.833,63.5 172.167,63.5 171.5,63.5C 168.727,62.3428 165.727,61.6761 162.5,61.5C 162.5,98.5 162.5,135.5 162.5,172.5C 152.842,168.841 142.842,166.175 132.5,164.5C 131.665,163.057 130.332,162.057 128.5,161.5C 133.483,160.497 138.483,160.497 143.5,161.5C 144.833,161.5 146.167,161.5 147.5,161.5C 151.267,163.027 155.267,164.027 159.5,164.5C 159.5,124.5 159.5,84.5 159.5,44.5C 155.5,44.5 151.5,44.5 147.5,44.5C 149.048,43.2057 151.048,42.5391 153.5,42.5C 155.759,42.5323 157.925,42.8656 160,43.5C 160.499,49.1569 160.666,54.8236 160.5,60.5C 164.833,60.5 169.167,60.5 173.5,60.5C 173.5,61.5 173.5,62.5 173.5,63.5 Z"/></g>
<g><path style="opacity:1" fill="#59bd9f" d="M 205.5,66.5 C 197.5,66.5 189.5,66.5 181.5,66.5C 181.5,79.8333 181.5,93.1667 181.5,106.5C 181.167,106.5 180.833,106.5 180.5,106.5C 180.5,93.1667 180.5,79.8333 180.5,66.5C 188.833,65.1667 197.167,65.1667 205.5,66.5 Z"/></g>
<g><path style="opacity:1" fill="#effbfc" d="M 105.5,76.5 C 102.426,76.8726 99.4261,77.5392 96.5,78.5C 94.8962,81.4032 93.8962,84.7366 93.5,88.5C 92.187,80.8007 92.3537,73.134 94,65.5C 95.6155,66.8009 97.1155,66.8009 98.5,65.5C 100.824,63.7234 103.491,62.7234 106.5,62.5C 106.774,67.263 106.441,71.9296 105.5,76.5 Z"/></g>
<g><path style="opacity:1" fill="#e9fafc" d="M 31.5,62.5 C 31.3048,66.5474 31.6381,70.5474 32.5,74.5C 31.4878,76.5522 30.8211,78.7188 30.5,81C 31.4997,89.3166 32.333,97.4833 33,105.5C 33.6667,106.833 34.6667,107.833 36,108.5C 37.5334,113.599 39.3667,118.599 41.5,123.5C 46.9775,128.308 51.3109,133.975 54.5,140.5C 51.6851,138.285 48.8518,135.951 46,133.5C 31.7606,114.215 26.094,92.5485 29,68.5C 29.0367,66.0261 29.87,64.0261 31.5,62.5 Z"/></g>
<g><path style="opacity:1" fill="#d7f6f6" d="M 98.5,65.5 C 97.1155,66.8009 95.6155,66.8009 94,65.5C 92.3537,73.134 92.187,80.8007 93.5,88.5C 93.8962,84.7366 94.8962,81.4032 96.5,78.5C 96.5,82.5 96.5,86.5 96.5,90.5C 94.4352,90.5172 92.4352,90.8505 90.5,91.5C 90.5,79.8333 90.5,68.1667 90.5,56.5C 92.4352,55.8505 94.4352,55.5172 96.5,55.5C 95.931,59.3293 96.5977,62.6627 98.5,65.5 Z"/></g>
<g><path style="opacity:1" fill="#2e92cb" d="M 147.5,161.5 C 146.167,161.5 144.833,161.5 143.5,161.5C 143.5,161.167 143.5,160.833 143.5,160.5C 138.777,158.775 133.777,157.775 128.5,157.5C 128.67,156.178 128.337,155.011 127.5,154C 128.5,153.833 129.5,153.667 130.5,153.5C 134.016,154.919 137.682,155.586 141.5,155.5C 143.691,156.291 145.691,156.291 147.5,155.5C 148.498,119.004 148.832,82.3371 148.5,45.5C 151.5,45.5 154.5,45.5 157.5,45.5C 157.833,84.5057 157.5,123.506 156.5,162.5C 153.579,161.593 150.579,161.26 147.5,161.5 Z"/></g>
<g><path style="opacity:1" fill="#eefcfd" d="M 206.5,89.5 C 206.777,86.5525 206.444,83.7191 205.5,81C 201.179,80.501 196.846,80.3343 192.5,80.5C 192.5,79.5 192.5,78.5 192.5,77.5C 197.032,77.8182 201.366,77.4849 205.5,76.5C 206.833,73.1667 206.833,69.8333 205.5,66.5C 197.167,65.1667 188.833,65.1667 180.5,66.5C 179.501,105.33 179.168,144.33 179.5,183.5C 178.005,183.585 177.005,182.919 176.5,181.5C 177.783,176.521 177.783,171.521 176.5,166.5C 176.079,174.045 174.912,181.379 173,188.5C 171.622,186.787 169.955,185.453 168,184.5C 167.667,185.5 167.333,186.5 167,187.5C 166.71,185.08 166.21,182.746 165.5,180.5C 168.006,181.75 170.673,182.416 173.5,182.5C 173.5,142.833 173.5,103.167 173.5,63.5C 175.441,63.8693 177.275,64.536 179,65.5C 181.263,63.4091 183.93,62.0758 187,61.5C 194.154,63.1904 201.321,63.6904 208.5,63C 209.167,64.6667 209.833,66.3333 210.5,68C 209.718,70.7405 209.218,73.5738 209,76.5C 206.49,79.0767 206.323,82.0767 208.5,85.5C 208.006,87.0255 207.339,88.3588 206.5,89.5 Z"/></g>
<g><path style="opacity:1" fill="#b2d8e9" d="M 25.5,60.5 C 23.7082,71.7374 23.0415,83.0707 23.5,94.5C 22.7784,94.0825 22.2784,93.4158 22,92.5C 21.3333,86.1667 21.3333,79.8333 22,73.5C 21.8306,68.6282 22.9972,64.2949 25.5,60.5 Z"/></g>
<g><path style="opacity:1" fill="#3ab197" d="M 135.5,82.5 C 135.665,85.8499 135.498,89.1832 135,92.5C 134.768,93.7375 134.268,94.7375 133.5,95.5C 134.46,91.8053 134.46,88.1386 133.5,84.5C 131.428,88.9775 129.095,93.3108 126.5,97.5C 126.631,96.7611 126.464,96.0944 126,95.5C 123,99.8333 120,104.167 117,108.5C 115.67,109.582 114.17,110.249 112.5,110.5C 114.901,106.458 117.234,102.458 119.5,98.5C 120.899,96.1266 122.232,93.6266 123.5,91C 125.134,90.5065 126.801,90.3398 128.5,90.5C 128.5,89.5 128.5,88.5 128.5,87.5C 129.998,84.6691 132.331,83.0025 135.5,82.5 Z"/></g>
<g><path style="opacity:1" fill="#2cac89" d="M 64.5,40.5 C 70.6799,41.184 76.6799,42.184 82.5,43.5C 84.2161,43.6287 85.8828,43.962 87.5,44.5C 88.925,45.922 89.925,47.5887 90.5,49.5C 90.5,51.8333 90.5,54.1667 90.5,56.5C 90.5,68.1667 90.5,79.8333 90.5,91.5C 90.4828,93.5648 90.1495,95.5648 89.5,97.5C 89.1667,97.5 88.8333,97.5 88.5,97.5C 86.5899,95.4383 84.2565,93.9383 81.5,93C 77.2099,92.0775 72.8766,91.5775 68.5,91.5C 66.8333,91.5 65.1667,91.5 63.5,91.5C 60.8411,91.0826 58.5078,90.0826 56.5,88.5C 56.5,72.5 56.5,56.5 56.5,40.5C 59.1667,40.5 61.8333,40.5 64.5,40.5 Z"/></g>
<g><path style="opacity:1" fill="#01af7a" d="M 82.5,43.5 C 83.4752,45.5128 85.1419,46.8461 87.5,47.5C 88.666,60.1535 88.8326,72.8202 88,85.5C 87.7811,86.938 87.2811,88.2713 86.5,89.5C 84.4659,89.7721 82.4659,90.1054 80.5,90.5C 73.1709,89.8998 65.8376,89.2331 58.5,88.5C 57.1667,73.1667 57.1667,57.8333 58.5,42.5C 59.6667,42.1667 60.8333,41.8333 62,41.5C 68.8066,42.4971 75.6399,43.1638 82.5,43.5 Z"/></g>
<g><path style="opacity:1" fill="#85dbe8" d="M 128.5,87.5 C 128.5,88.5 128.5,89.5 128.5,90.5C 126.801,90.3398 125.134,90.5065 123.5,91C 122.232,93.6266 120.899,96.1266 119.5,98.5C 119.158,97.6618 118.492,97.3284 117.5,97.5C 117.516,95.5159 116.516,94.5159 114.5,94.5C 111.744,96.5855 108.744,98.2522 105.5,99.5C 104.833,99.5 104.167,99.5 103.5,99.5C 102.5,99.1667 101.833,98.5 101.5,97.5C 108.78,94.0936 116.447,91.427 124.5,89.5C 126.062,89.2671 127.395,88.6005 128.5,87.5 Z"/></g>
<g><path style="opacity:1" fill="#1bab7e" d="M 205.5,66.5 C 206.833,69.8333 206.833,73.1667 205.5,76.5C 200.833,76.5 196.167,76.5 191.5,76.5C 191.5,78.1667 191.5,79.8333 191.5,81.5C 195.833,81.5 200.167,81.5 204.5,81.5C 204.5,84.8333 204.5,88.1667 204.5,91.5C 200.167,91.5 195.833,91.5 191.5,91.5C 191.5,93.5 191.5,95.5 191.5,97.5C 196.305,98.4872 201.305,98.8205 206.5,98.5C 206.5,101.167 206.5,103.833 206.5,106.5C 198.167,106.5 189.833,106.5 181.5,106.5C 181.5,93.1667 181.5,79.8333 181.5,66.5C 189.5,66.5 197.5,66.5 205.5,66.5 Z"/></g>
<g><path style="opacity:1" fill="#04ad7a" d="M 184.5,67.5 C 191.167,67.5 197.833,67.5 204.5,67.5C 204.5,69.8333 204.5,72.1667 204.5,74.5C 199.12,74.3243 193.787,74.6576 188.5,75.5C 187.991,83.6644 191.658,86.3311 199.5,83.5C 203.024,84.0505 204.024,85.8838 202.5,89C 198.129,89.1725 193.796,89.6725 189.5,90.5C 188.626,92.7466 188.292,95.0799 188.5,97.5C 186.833,97.5 185.167,97.5 183.5,97.5C 183.582,90.149 183.249,82.8157 182.5,75.5C 182.289,72.5141 182.956,69.8474 184.5,67.5 Z"/></g>
<g><path style="opacity:1" fill="#d2fbf4" d="M 205.5,76.5 C 201.366,77.4849 197.032,77.8182 192.5,77.5C 192.5,78.5 192.5,79.5 192.5,80.5C 196.846,80.3343 201.179,80.501 205.5,81C 206.444,83.7191 206.777,86.5525 206.5,89.5C 206.489,91.0174 205.823,92.1841 204.5,93C 200.789,93.1747 197.122,93.6747 193.5,94.5C 198.792,95.4948 204.125,95.8282 209.5,95.5C 209.379,108.59 209.046,121.59 208.5,134.5C 208.666,128.158 208.5,121.825 208,115.5C 207.434,112.771 205.934,110.771 203.5,109.5C 203.5,109.167 203.5,108.833 203.5,108.5C 204.833,108.5 206.167,108.5 207.5,108.5C 207.5,104.833 207.5,101.167 207.5,97.5C 202.167,97.5 196.833,97.5 191.5,97.5C 191.5,95.5 191.5,93.5 191.5,91.5C 195.833,91.5 200.167,91.5 204.5,91.5C 204.5,88.1667 204.5,84.8333 204.5,81.5C 200.167,81.5 195.833,81.5 191.5,81.5C 191.5,79.8333 191.5,78.1667 191.5,76.5C 196.167,76.5 200.833,76.5 205.5,76.5 Z"/></g>
<g><path style="opacity:1" fill="#96e9e7" d="M 68.5,91.5 C 72.8766,91.5775 77.2099,92.0775 81.5,93C 84.2565,93.9383 86.5899,95.4383 88.5,97.5C 88.5654,97.9382 88.3988,98.2716 88,98.5C 81.7094,95.4312 75.2094,93.0979 68.5,91.5 Z"/></g>
<g><path style="opacity:1" fill="#24ab86" d="M 117.5,97.5 C 114.578,101.024 111.911,104.691 109.5,108.5C 108.549,109.919 108.216,111.585 108.5,113.5C 107.834,110.642 107.167,107.642 106.5,104.5C 104.275,106.11 101.941,107.443 99.5,108.5C 101.194,106.139 103.194,104.139 105.5,102.5C 105.5,101.5 105.5,100.5 105.5,99.5C 108.744,98.2522 111.744,96.5855 114.5,94.5C 116.516,94.5159 117.516,95.5159 117.5,97.5 Z"/></g>
<g><path style="opacity:1" fill="#ace2f9" d="M 52.5,44.5 C 53.4963,59.9911 53.8296,75.6578 53.5,91.5C 56.8333,91.5 60.1667,91.5 63.5,91.5C 65.1667,91.5 66.8333,91.5 68.5,91.5C 75.2094,93.0979 81.7094,95.4312 88,98.5C 88.3988,98.2716 88.5654,97.9382 88.5,97.5C 88.8333,97.5 89.1667,97.5 89.5,97.5C 89.8565,98.8699 90.6898,99.8699 92,100.5C 95.0212,98.9927 98.1879,97.9927 101.5,97.5C 101.833,98.5 102.5,99.1667 103.5,99.5C 99.5335,102.216 95.0335,103.883 90,104.5C 77.5182,100.422 65.0182,96.4216 52.5,92.5C 52.5,76.5 52.5,60.5 52.5,44.5 Z"/></g>
<g><path style="opacity:1" fill="#4ab69d" d="M 191.5,97.5 C 196.833,97.5 202.167,97.5 207.5,97.5C 207.5,101.167 207.5,104.833 207.5,108.5C 206.167,108.5 204.833,108.5 203.5,108.5C 196.035,107.899 188.702,107.232 181.5,106.5C 189.833,106.5 198.167,106.5 206.5,106.5C 206.5,103.833 206.5,101.167 206.5,98.5C 201.305,98.8205 196.305,98.4872 191.5,97.5 Z"/></g>
<g><path style="opacity:1" fill="#baf5e9" d="M 117.5,97.5 C 118.492,97.3284 119.158,97.6618 119.5,98.5C 117.234,102.458 114.901,106.458 112.5,110.5C 110.334,113.04 109.334,112.373 109.5,108.5C 111.911,104.691 114.578,101.024 117.5,97.5 Z"/></g>
<g><path style="opacity:1" fill="#74e4c4" d="M 126.5,97.5 C 123.231,104.51 118.231,110.01 111.5,114C 110.251,114.74 109.251,114.573 108.5,113.5C 108.216,111.585 108.549,109.919 109.5,108.5C 109.334,112.373 110.334,113.04 112.5,110.5C 114.17,110.249 115.67,109.582 117,108.5C 120,104.167 123,99.8333 126,95.5C 126.464,96.0944 126.631,96.7611 126.5,97.5 Z"/></g>
<g><path style="opacity:1" fill="#24a0b2" d="M 180.5,106.5 C 180.833,106.5 181.167,106.5 181.5,106.5C 188.702,107.232 196.035,107.899 203.5,108.5C 203.5,108.833 203.5,109.167 203.5,109.5C 195.981,109.175 188.648,109.508 181.5,110.5C 181.167,110.5 180.833,110.5 180.5,110.5C 180.5,109.167 180.5,107.833 180.5,106.5 Z"/></g>
<g><path style="opacity:1" fill="#2b93cc" d="M 181.5,110.5 C 186.844,110.334 192.177,110.501 197.5,111C 198.641,111.741 198.641,112.575 197.5,113.5C 195.516,114.706 193.516,114.706 191.5,113.5C 190.614,114.325 190.281,115.325 190.5,116.5C 188.708,121.745 187.874,127.412 188,133.5C 186.372,134.819 186.539,136.152 188.5,137.5C 186.887,139.123 185.22,140.29 183.5,141C 182.744,130.886 182.078,120.719 181.5,110.5 Z"/></g>
<g><path style="opacity:1" fill="#0ead7b" d="M 133.5,95.5 C 131.87,100.86 129.37,105.86 126,110.5C 122.803,114.502 119.303,118.169 115.5,121.5C 111.402,123.048 107.402,124.881 103.5,127C 101.866,127.494 100.199,127.66 98.5,127.5C 92.1579,127.666 85.8246,127.5 79.5,127C 75.0715,124.52 70.7382,121.853 66.5,119C 67,118.5 67.5,118 68,117.5C 69.7395,118.894 71.7395,119.561 74,119.5C 82.0138,118.704 89.5138,116.538 96.5,113C 97.8825,111.729 98.8825,110.229 99.5,108.5C 101.941,107.443 104.275,106.11 106.5,104.5C 107.167,107.642 107.834,110.642 108.5,113.5C 109.251,114.573 110.251,114.74 111.5,114C 118.231,110.01 123.231,104.51 126.5,97.5C 129.095,93.3108 131.428,88.9775 133.5,84.5C 134.46,88.1386 134.46,91.8053 133.5,95.5 Z"/></g>
<g><path style="opacity:1" fill="#499cc8" d="M 181.5,110.5 C 188.648,109.508 195.981,109.175 203.5,109.5C 205.934,110.771 207.434,112.771 208,115.5C 208.5,121.825 208.666,128.158 208.5,134.5C 208.34,136.153 207.674,137.486 206.5,138.5C 207.921,130.146 207.754,121.813 206,113.5C 204.491,111.081 202.325,110.081 199.5,110.5C 200.222,117.159 200.389,123.825 200,130.5C 199.617,131.056 199.117,131.389 198.5,131.5C 198.827,126.786 198.493,122.12 197.5,117.5C 195.253,116.626 192.92,116.292 190.5,116.5C 190.281,115.325 190.614,114.325 191.5,113.5C 193.516,114.706 195.516,114.706 197.5,113.5C 198.641,112.575 198.641,111.741 197.5,111C 192.177,110.501 186.844,110.334 181.5,110.5 Z"/></g>
<g><path style="opacity:1" fill="#3aac87" d="M 56.5,109.5 C 61.4748,115.162 67.8081,117.495 75.5,116.5C 81.523,117.019 87.1897,115.852 92.5,113C 93.3805,112.292 94.0472,111.458 94.5,110.5C 96.1667,109.833 97.8333,109.167 99.5,108.5C 98.8825,110.229 97.8825,111.729 96.5,113C 89.5138,116.538 82.0138,118.704 74,119.5C 71.7395,119.561 69.7395,118.894 68,117.5C 67.5,118 67,118.5 66.5,119C 70.7382,121.853 75.0715,124.52 79.5,127C 85.8246,127.5 92.1579,127.666 98.5,127.5C 90.975,128.748 83.3083,128.748 75.5,127.5C 68.7171,123.933 62.3838,119.599 56.5,114.5C 55.0661,111.889 53.3994,109.389 51.5,107C 51.6667,106.5 51.8333,106 52,105.5C 53.3712,107.041 54.8712,108.375 56.5,109.5 Z"/></g>
<g><path style="opacity:1" fill="#cbf8ee" d="M 56.5,109.5 C 60.409,111.419 64.409,113.252 68.5,115C 73.5,115.667 78.5,115.667 83.5,115C 87.0365,113.192 90.7032,111.692 94.5,110.5C 94.0472,111.458 93.3805,112.292 92.5,113C 87.1897,115.852 81.523,117.019 75.5,116.5C 67.8081,117.495 61.4748,115.162 56.5,109.5 Z"/></g>
<g><path style="opacity:1" fill="#a5d6e4" d="M 137.5,91.5 C 137.56,90.9569 137.893,90.6236 138.5,90.5C 139.827,108.996 139.827,127.329 138.5,145.5C 138.83,127.326 138.497,109.326 137.5,91.5 Z"/></g>
<g><path style="opacity:1" fill="#e5fbfe" d="M 190.5,116.5 C 192.92,116.292 195.253,116.626 197.5,117.5C 198.493,122.12 198.827,126.786 198.5,131.5C 198.5,132.167 198.5,132.833 198.5,133.5C 195.946,134.388 193.279,134.721 190.5,134.5C 190.5,128.5 190.5,122.5 190.5,116.5 Z"/></g>
<g><path style="opacity:1" fill="#cff7f0" d="M 56.5,114.5 C 62.3838,119.599 68.7171,123.933 75.5,127.5C 73.8008,127.66 72.1341,127.494 70.5,127C 68.1698,124.833 65.5032,123.166 62.5,122C 59.8929,119.934 57.8929,117.434 56.5,114.5 Z"/></g>
<g><path style="opacity:1" fill="#3192ca" d="M 206.5,138.5 C 206.167,139.5 205.5,140.167 204.5,140.5C 201.143,140.77 198.809,140.104 197.5,138.5C 197.629,136.784 197.962,135.117 198.5,133.5C 198.5,132.833 198.5,132.167 198.5,131.5C 199.117,131.389 199.617,131.056 200,130.5C 200.389,123.825 200.222,117.159 199.5,110.5C 202.325,110.081 204.491,111.081 206,113.5C 207.754,121.813 207.921,130.146 206.5,138.5 Z"/></g>
<g><path style="opacity:1" fill="#78b0c5" d="M 171.5,63.5 C 168.833,63.5 166.167,63.5 163.5,63.5C 163.832,100.004 163.498,136.337 162.5,172.5C 162.5,135.5 162.5,98.5 162.5,61.5C 165.727,61.6761 168.727,62.3428 171.5,63.5 Z"/></g>
<g><path style="opacity:1" fill="#defbf6" d="M 115.5,121.5 C 113.877,125.123 111.21,127.79 107.5,129.5C 106.914,129.291 106.414,128.957 106,128.5C 96.7968,131.854 87.4634,132.188 78,129.5C 76.6244,129.316 75.7911,128.649 75.5,127.5C 83.3083,128.748 90.975,128.748 98.5,127.5C 100.199,127.66 101.866,127.494 103.5,127C 107.402,124.881 111.402,123.048 115.5,121.5 Z"/></g>
<g><path style="opacity:1" fill="#3a96c7" d="M 180.5,110.5 C 180.833,110.5 181.167,110.5 181.5,110.5C 182.078,120.719 182.744,130.886 183.5,141C 185.22,140.29 186.887,139.123 188.5,137.5C 186.539,136.152 186.372,134.819 188,133.5C 187.874,127.412 188.708,121.745 190.5,116.5C 190.5,122.5 190.5,128.5 190.5,134.5C 193.279,134.721 195.946,134.388 198.5,133.5C 197.962,135.117 197.629,136.784 197.5,138.5C 198.809,140.104 201.143,140.77 204.5,140.5C 204.167,141.167 203.833,141.833 203.5,142.5C 195.775,143.632 188.108,143.632 180.5,142.5C 180.5,131.833 180.5,121.167 180.5,110.5 Z"/></g>
<g><path style="opacity:1" fill="#63a7cc" d="M 147.5,44.5 C 151.5,44.5 155.5,44.5 159.5,44.5C 159.5,84.5 159.5,124.5 159.5,164.5C 155.267,164.027 151.267,163.027 147.5,161.5C 150.579,161.26 153.579,161.593 156.5,162.5C 157.5,123.506 157.833,84.5057 157.5,45.5C 154.5,45.5 151.5,45.5 148.5,45.5C 148.832,82.3371 148.498,119.004 147.5,155.5C 147.5,118.5 147.5,81.5 147.5,44.5 Z"/></g>
<g><path style="opacity:1" fill="#e9f8fa" d="M 92.5,140.5 C 87.2312,143.134 81.8978,145.801 76.5,148.5C 73.8071,150.974 71.4738,153.641 69.5,156.5C 64.9578,159.902 62.9578,164.236 63.5,169.5C 64.2389,169.369 64.9056,169.536 65.5,170C 65.7425,172.072 65.4092,174.239 64.5,176.5C 63.2267,177.077 63.2267,177.743 64.5,178.5C 66.9242,177.577 68.9242,176.077 70.5,174C 72.743,172.864 75.0763,172.03 77.5,171.5C 76.0254,173.41 74.0254,174.576 71.5,175C 70.2567,176.154 69.2567,177.488 68.5,179C 65.284,179.003 62.6174,180.169 60.5,182.5C 60.1667,182.167 59.8333,181.833 59.5,181.5C 60.7468,179.958 60.7468,178.458 59.5,177C 60.6721,176.581 61.6721,175.915 62.5,175C 61.09,174.632 60.09,173.799 59.5,172.5C 60.336,168.492 61.6693,164.659 63.5,161C 62.3131,157.694 63.6464,156.194 67.5,156.5C 67.3505,155.448 67.5172,154.448 68,153.5C 70.5366,150.628 73.3699,148.128 76.5,146C 75.5294,144.796 74.5294,144.296 73.5,144.5C 74.8132,142.174 76.8132,140.841 79.5,140.5C 83.8265,141.645 88.1599,141.645 92.5,140.5 Z"/></g>
<g><path style="opacity:1" fill="#4d98c1" d="M 137.5,91.5 C 138.497,109.326 138.83,127.326 138.5,145.5C 133.819,145.331 129.152,144.998 124.5,144.5C 117.011,143.344 109.345,143.178 101.5,144C 100.584,144.278 99.9175,144.778 99.5,145.5C 93.7086,146.427 88.0419,147.927 82.5,150C 77.353,153.32 72.6864,157.153 68.5,161.5C 67.9569,161.44 67.6236,161.107 67.5,160.5C 68.6302,159.378 69.2969,158.044 69.5,156.5C 71.4738,153.641 73.8071,150.974 76.5,148.5C 81.8978,145.801 87.2312,143.134 92.5,140.5C 94.1667,140.5 95.8333,140.5 97.5,140.5C 108.398,138.717 119.398,138.05 130.5,138.5C 130.334,128.828 130.5,119.161 131,109.5C 131.561,106.71 132.894,104.377 135,102.5C 136.562,98.9855 137.395,95.3189 137.5,91.5 Z"/></g>
<g><path style="opacity:1" fill="#3091c8" d="M 130.5,138.5 C 132.67,130.262 134.003,121.762 134.5,113C 132.86,110.419 133.194,108.252 135.5,106.5C 136.473,108.392 137.14,110.392 137.5,112.5C 136.547,122.8 136.214,133.134 136.5,143.5C 126.145,143.199 115.812,142.532 105.5,141.5C 106.376,140.749 107.376,140.249 108.5,140C 116.011,139.829 123.345,139.329 130.5,138.5 Z"/></g>
<g><path style="opacity:1" fill="#86bbd2" d="M 124.5,144.5 C 116.133,144.295 107.8,144.629 99.5,145.5C 99.9175,144.778 100.584,144.278 101.5,144C 109.345,143.178 117.011,143.344 124.5,144.5 Z"/></g>
<g><path style="opacity:1" fill="#f2fdfe" d="M 146.5,44.5 C 146.5,81.1667 146.5,117.833 146.5,154.5C 144.833,154.5 143.167,154.5 141.5,154.5C 134.086,152.405 126.42,151.072 118.5,150.5C 117.737,149.732 116.737,149.232 115.5,149C 109.833,148.667 104.167,148.333 98.5,148C 98.8333,147.667 99.1667,147.333 99.5,147C 113.146,146.553 126.646,146.387 140,146.5C 140.667,127.5 140.667,108.5 140,89.5C 138.133,87.0898 138.133,84.7564 140,82.5C 140.667,64.5 140.667,46.5 140,28.5C 139.617,27.944 139.117,27.6107 138.5,27.5C 135.833,27.5 133.167,27.5 130.5,27.5C 128.74,30.7006 127.906,34.3673 128,38.5C 126.091,38.6735 124.257,39.0068 122.5,39.5C 118.539,41.0966 114.373,42.4299 110,43.5C 108.97,43.8361 108.47,44.5028 108.5,45.5C 107.508,45.3284 106.842,45.6618 106.5,46.5C 101.167,47.5 95.8333,48.5 90.5,49.5C 89.925,47.5887 88.925,45.922 87.5,44.5C 90.4344,45.2877 93.4344,45.9544 96.5,46.5C 98.1667,46.3333 99.8333,46.1667 101.5,46C 109.299,41.615 117.632,38.615 126.5,37C 127.814,34.0434 127.48,31.21 125.5,28.5C 126.436,27.0256 127.77,26.0256 129.5,25.5C 130.281,24.2713 130.781,22.938 131,21.5C 134.289,23.5035 137.623,25.5035 141,27.5C 141.169,35.1883 141.669,42.8549 142.5,50.5C 143.707,48.3349 145.04,46.3349 146.5,44.5 Z"/></g>
<g><path style="opacity:1" fill="#1f9fae" d="M 180.5,142.5 C 188.108,143.632 195.775,143.632 203.5,142.5C 201.611,143.322 199.611,144.155 197.5,145C 191.843,145.499 186.176,145.666 180.5,145.5C 180.5,144.5 180.5,143.5 180.5,142.5 Z"/></g>
<g><path style="opacity:1" fill="#1ba97e" d="M 205.5,152.5 C 200.833,152.5 196.167,152.5 191.5,152.5C 191.5,154.5 191.5,156.5 191.5,158.5C 195.833,158.5 200.167,158.5 204.5,158.5C 204.5,161.5 204.5,164.5 204.5,167.5C 204.5,167.833 204.5,168.167 204.5,168.5C 200.167,168.5 195.833,168.5 191.5,168.5C 191.5,170.167 191.5,171.833 191.5,173.5C 190.5,173.5 189.5,173.5 188.5,173.5C 188.244,171.208 188.577,169.041 189.5,167C 193.821,166.501 198.154,166.334 202.5,166.5C 202.5,164.833 202.5,163.167 202.5,161.5C 196.967,161.855 191.633,161.022 186.5,159C 187.775,156.506 189.108,154.006 190.5,151.5C 193.785,150.676 197.118,150.176 200.5,150C 198.316,147.632 195.649,146.965 192.5,148C 190.598,148.199 189.098,149.033 188,150.5C 186.934,148.901 185.434,147.901 183.5,147.5C 182.334,158.819 182.168,170.152 183,181.5C 190.413,182.481 197.913,182.814 205.5,182.5C 205.5,180.5 205.5,178.5 205.5,176.5C 200.968,176.818 196.634,176.485 192.5,175.5C 197.167,175.5 201.833,175.5 206.5,175.5C 206.5,178.167 206.5,180.833 206.5,183.5C 198.167,183.5 189.833,183.5 181.5,183.5C 181.5,171.167 181.5,158.833 181.5,146.5C 189.619,146.886 197.619,146.219 205.5,144.5C 205.5,147.167 205.5,149.833 205.5,152.5 Z"/></g>
<g><path style="opacity:1" fill="#03ae7a" d="M 191.5,173.5 C 191.5,173.833 191.5,174.167 191.5,174.5C 191.5,175.167 191.833,175.5 192.5,175.5C 196.634,176.485 200.968,176.818 205.5,176.5C 205.5,178.5 205.5,180.5 205.5,182.5C 197.913,182.814 190.413,182.481 183,181.5C 182.168,170.152 182.334,158.819 183.5,147.5C 185.434,147.901 186.934,148.901 188,150.5C 189.098,149.033 190.598,148.199 192.5,148C 195.649,146.965 198.316,147.632 200.5,150C 197.118,150.176 193.785,150.676 190.5,151.5C 189.108,154.006 187.775,156.506 186.5,159C 191.633,161.022 196.967,161.855 202.5,161.5C 202.5,163.167 202.5,164.833 202.5,166.5C 198.154,166.334 193.821,166.501 189.5,167C 188.577,169.041 188.244,171.208 188.5,173.5C 189.5,173.5 190.5,173.5 191.5,173.5 Z"/></g>
<g><path style="opacity:1" fill="#519bc6" d="M 118.5,150.5 C 126.42,151.072 134.086,152.405 141.5,154.5C 141.5,154.833 141.5,155.167 141.5,155.5C 137.682,155.586 134.016,154.919 130.5,153.5C 129.5,153.667 128.5,153.833 127.5,154C 128.337,155.011 128.67,156.178 128.5,157.5C 133.777,157.775 138.777,158.775 143.5,160.5C 129.602,158.072 115.602,156.739 101.5,156.5C 107.653,155.672 113.987,155.172 120.5,155C 121.308,154.692 121.975,154.192 122.5,153.5C 117.932,152.181 113.265,151.514 108.5,151.5C 103.172,151.981 97.8388,152.314 92.5,152.5C 93.6085,151.71 94.9419,151.21 96.5,151C 103.826,150.5 111.159,150.334 118.5,150.5 Z"/></g>
<g><path style="opacity:1" fill="#c2f3e9" d="M 206.5,142.5 C 207.643,145.976 207.81,149.642 207,153.5C 202.548,154.141 198.048,154.808 193.5,155.5C 197.445,156.491 201.445,156.824 205.5,156.5C 205.815,160.371 205.482,164.038 204.5,167.5C 204.5,164.5 204.5,161.5 204.5,158.5C 200.167,158.5 195.833,158.5 191.5,158.5C 191.5,156.5 191.5,154.5 191.5,152.5C 196.167,152.5 200.833,152.5 205.5,152.5C 206.479,149.375 206.813,146.042 206.5,142.5 Z"/></g>
<g><path style="opacity:1" fill="#3291c6" d="M 101.5,156.5 C 100.833,156.5 100.167,156.5 99.5,156.5C 95.5633,156.207 91.73,156.54 88,157.5C 88.1116,155.203 89.2783,153.536 91.5,152.5C 91.8333,152.5 92.1667,152.5 92.5,152.5C 97.8388,152.314 103.172,151.981 108.5,151.5C 113.265,151.514 117.932,152.181 122.5,153.5C 121.975,154.192 121.308,154.692 120.5,155C 113.987,155.172 107.653,155.672 101.5,156.5 Z"/></g>
<g><path style="opacity:1" fill="#5699c0" d="M 91.5,152.5 C 89.2783,153.536 88.1116,155.203 88,157.5C 91.73,156.54 95.5633,156.207 99.5,156.5C 88.1844,157.539 78.0177,161.539 69,168.5C 68.6848,167.092 69.0181,165.759 70,164.5C 73.8586,160.981 78.0253,157.814 82.5,155C 85.3527,153.57 88.3527,152.737 91.5,152.5 Z"/></g>
<g><path style="opacity:1" fill="#d5f3f8" d="M 130.5,27.5 C 129.897,32.6186 130.564,37.2853 132.5,41.5C 132.5,54.1667 132.5,66.8333 132.5,79.5C 133.833,79.5 135.167,79.5 136.5,79.5C 137.117,79.6107 137.617,79.944 138,80.5C 138.5,62.8365 138.667,45.1698 138.5,27.5C 139.117,27.6107 139.617,27.944 140,28.5C 140.667,46.5 140.667,64.5 140,82.5C 138.133,84.7564 138.133,87.0898 140,89.5C 140.667,108.5 140.667,127.5 140,146.5C 126.646,146.387 113.146,146.553 99.5,147C 99.1667,147.333 98.8333,147.667 98.5,148C 104.167,148.333 109.833,148.667 115.5,149C 116.737,149.232 117.737,149.732 118.5,150.5C 111.159,150.334 103.826,150.5 96.5,151C 94.9419,151.21 93.6085,151.71 92.5,152.5C 92.1667,152.5 91.8333,152.5 91.5,152.5C 88.3527,152.737 85.3527,153.57 82.5,155C 78.0253,157.814 73.8586,160.981 70,164.5C 69.0181,165.759 68.6848,167.092 69,168.5C 78.0177,161.539 88.1844,157.539 99.5,156.5C 100.167,156.5 100.833,156.5 101.5,156.5C 115.602,156.739 129.602,158.072 143.5,160.5C 143.5,160.833 143.5,161.167 143.5,161.5C 138.483,160.497 133.483,160.497 128.5,161.5C 130.332,162.057 131.665,163.057 132.5,164.5C 119.632,161.854 106.632,161.021 93.5,162C 89.2848,163.234 85.2848,164.734 81.5,166.5C 79.7376,166.357 78.0709,166.691 76.5,167.5C 72.1857,170 68.1857,173 64.5,176.5C 65.4092,174.239 65.7425,172.072 65.5,170C 64.9056,169.536 64.2389,169.369 63.5,169.5C 64.3485,166.319 66.0152,163.652 68.5,161.5C 72.6864,157.153 77.353,153.32 82.5,150C 88.0419,147.927 93.7086,146.427 99.5,145.5C 107.8,144.629 116.133,144.295 124.5,144.5C 129.152,144.998 133.819,145.331 138.5,145.5C 139.827,127.329 139.827,108.996 138.5,90.5C 137.893,90.6236 137.56,90.9569 137.5,91.5C 137.395,95.3189 136.562,98.9855 135,102.5C 132.894,104.377 131.561,106.71 131,109.5C 130.5,119.161 130.334,128.828 130.5,138.5C 119.398,138.05 108.398,138.717 97.5,140.5C 99.3637,138.782 101.697,137.615 104.5,137C 112.827,136.5 121.16,136.334 129.5,136.5C 129.666,127.827 129.5,119.16 129,110.5C 125.343,115.239 120.843,118.906 115.5,121.5C 119.303,118.169 122.803,114.502 126,110.5C 129.37,105.86 131.87,100.86 133.5,95.5C 134.268,94.7375 134.768,93.7375 135,92.5C 135.498,89.1832 135.665,85.8499 135.5,82.5C 134.116,81.1991 132.616,81.1991 131,82.5C 130.667,70.1667 130.333,57.8333 130,45.5C 128.989,44.6634 127.822,44.33 126.5,44.5C 126.771,42.6203 126.104,41.287 124.5,40.5C 124.158,39.6618 123.492,39.3284 122.5,39.5C 124.257,39.0068 126.091,38.6735 128,38.5C 127.906,34.3673 128.74,30.7006 130.5,27.5 Z"/></g>
<g><path style="opacity:1" fill="#4092c1" d="M 130.5,27.5 C 133.167,27.5 135.833,27.5 138.5,27.5C 138.667,45.1698 138.5,62.8365 138,80.5C 137.617,79.944 137.117,79.6107 136.5,79.5C 135.791,78.596 134.791,78.2627 133.5,78.5C 133.829,65.9887 133.495,53.6554 132.5,41.5C 130.564,37.2853 129.897,32.6186 130.5,27.5 Z"/></g>
<g><path style="opacity:1" fill="#8cc4db" d="M 132.5,41.5 C 133.495,53.6554 133.829,65.9887 133.5,78.5C 134.791,78.2627 135.791,78.596 136.5,79.5C 135.167,79.5 133.833,79.5 132.5,79.5C 132.5,66.8333 132.5,54.1667 132.5,41.5 Z"/></g>
<g><path style="opacity:1" fill="#7eabbe" d="M 69.5,156.5 C 69.2969,158.044 68.6302,159.378 67.5,160.5C 67.6236,161.107 67.9569,161.44 68.5,161.5C 66.0152,163.652 64.3485,166.319 63.5,169.5C 62.9578,164.236 64.9578,159.902 69.5,156.5 Z"/></g>
<g><path style="opacity:1" fill="#d1eef6" d="M 130.5,169.5 C 114.177,168.238 97.844,168.238 81.5,169.5C 81.5,169.167 81.5,168.833 81.5,168.5C 95.0279,165.078 108.695,164.578 122.5,167C 125.522,167.098 128.189,167.932 130.5,169.5 Z"/></g>
<g><path style="opacity:1" fill="#40b293" d="M 203.5,142.5 C 204.5,142.5 205.5,142.5 206.5,142.5C 206.813,146.042 206.479,149.375 205.5,152.5C 205.5,149.833 205.5,147.167 205.5,144.5C 197.619,146.219 189.619,146.886 181.5,146.5C 181.5,158.833 181.5,171.167 181.5,183.5C 189.833,183.5 198.167,183.5 206.5,183.5C 206.5,180.833 206.5,178.167 206.5,175.5C 201.833,175.5 197.167,175.5 192.5,175.5C 191.833,175.5 191.5,175.167 191.5,174.5C 196.5,174.5 201.5,174.5 206.5,174.5C 207.479,177.625 207.813,180.958 207.5,184.5C 198.5,184.5 189.5,184.5 180.5,184.5C 180.5,171.5 180.5,158.5 180.5,145.5C 186.176,145.666 191.843,145.499 197.5,145C 199.611,144.155 201.611,143.322 203.5,142.5 Z"/></g>
<g><path style="opacity:1" fill="#6ea1bb" d="M 81.5,166.5 C 81.0825,167.222 80.4158,167.722 79.5,168C 80.0944,168.464 80.7611,168.631 81.5,168.5C 81.5,168.833 81.5,169.167 81.5,169.5C 80.1667,170.167 78.8333,170.833 77.5,171.5C 75.0763,172.03 72.743,172.864 70.5,174C 68.9242,176.077 66.9242,177.577 64.5,178.5C 63.2267,177.743 63.2267,177.077 64.5,176.5C 68.1857,173 72.1857,170 76.5,167.5C 78.0709,166.691 79.7376,166.357 81.5,166.5 Z"/></g>
<g><path style="opacity:1" fill="#4594c1" d="M 171.5,63.5 C 172.167,63.5 172.833,63.5 173.5,63.5C 173.5,103.167 173.5,142.833 173.5,182.5C 170.673,182.416 168.006,181.75 165.5,180.5C 154.589,174.903 142.922,171.236 130.5,169.5C 128.189,167.932 125.522,167.098 122.5,167C 108.695,164.578 95.0279,165.078 81.5,168.5C 80.7611,168.631 80.0944,168.464 79.5,168C 80.4158,167.722 81.0825,167.222 81.5,166.5C 85.2848,164.734 89.2848,163.234 93.5,162C 106.632,161.021 119.632,161.854 132.5,164.5C 142.842,166.175 152.842,168.841 162.5,172.5C 163.498,136.337 163.832,100.004 163.5,63.5C 166.167,63.5 168.833,63.5 171.5,63.5 Z"/></g>
<g><path style="opacity:1" fill="#2b93ce" d="M 165.5,65.5 C 167.5,65.5 169.5,65.5 171.5,65.5C 171.5,103.5 171.5,141.5 171.5,179.5C 168.833,178.833 166.167,178.167 163.5,177.5C 164.331,173.656 165.331,169.823 166.5,166C 165.77,163.184 165.103,160.35 164.5,157.5C 165.485,126.858 165.818,96.1916 165.5,65.5 Z"/></g>
<g><path style="opacity:1" fill="#a6e9d9" d="M 204.5,168.5 C 204.5,168.833 204.5,169.167 204.5,169.5C 200.5,169.5 196.5,169.5 192.5,169.5C 192.5,170.833 192.5,172.167 192.5,173.5C 197.363,173.181 202.03,173.514 206.5,174.5C 201.5,174.5 196.5,174.5 191.5,174.5C 191.5,174.167 191.5,173.833 191.5,173.5C 191.5,171.833 191.5,170.167 191.5,168.5C 195.833,168.5 200.167,168.5 204.5,168.5 Z"/></g>
<g><path style="opacity:1" fill="#d9fbf5" d="M 180.5,66.5 C 180.5,79.8333 180.5,93.1667 180.5,106.5C 180.5,107.833 180.5,109.167 180.5,110.5C 180.5,121.167 180.5,131.833 180.5,142.5C 180.5,143.5 180.5,144.5 180.5,145.5C 180.5,158.5 180.5,171.5 180.5,184.5C 189.5,184.5 198.5,184.5 207.5,184.5C 207.813,180.958 207.479,177.625 206.5,174.5C 202.03,173.514 197.363,173.181 192.5,173.5C 192.5,172.167 192.5,170.833 192.5,169.5C 196.5,169.5 200.5,169.5 204.5,169.5C 200.979,170.166 197.313,170.833 193.5,171.5C 199.052,172.188 204.552,172.854 210,173.5C 210.315,176.372 210.815,179.205 211.5,182C 211.046,184.036 210.213,185.87 209,187.5C 199.607,187.531 190.107,187.364 180.5,187C 179.663,185.989 179.33,184.822 179.5,183.5C 179.168,144.33 179.501,105.33 180.5,66.5 Z"/></g>
<g><path style="opacity:1" fill="#8b8b8b" d="M 52.5,205.5 C 54.6934,204.203 57.0268,204.203 59.5,205.5C 59.3764,206.107 59.0431,206.44 58.5,206.5C 56.7354,205.539 54.7354,205.205 52.5,205.5 Z"/></g>
<g><path style="opacity:1" fill="#2e2e2e" d="M -0.5,205.5 C 5.16669,205.664 5.50002,205.997 0.5,206.5C 0.812775,210.042 0.479442,213.375 -0.5,216.5C -0.5,212.833 -0.5,209.167 -0.5,205.5 Z"/></g>
<g><path style="opacity:1" fill="#434343" d="M 52.5,205.5 C 54.7354,205.205 56.7354,205.539 58.5,206.5C 57.1667,206.5 55.8333,206.5 54.5,206.5C 54.5,207.833 54.5,209.167 54.5,210.5C 57.925,210.367 58.2583,211.033 55.5,212.5C 54.1667,213.5 54.1667,214.5 55.5,215.5C 56.2625,216.268 57.2625,216.768 58.5,217C 56.5273,217.495 54.5273,217.662 52.5,217.5C 52.5,213.5 52.5,209.5 52.5,205.5 Z"/></g>
<g><path style="opacity:1" fill="#4a4a4a" d="M 77.5,211.5 C 78.2216,211.082 78.7216,210.416 79,209.5C 79.2189,210.938 79.7189,212.271 80.5,213.5C 80.8333,212.5 81.1667,211.5 81.5,210.5C 80.8127,208.847 80.146,207.181 79.5,205.5C 80.0768,204.227 80.7435,204.227 81.5,205.5C 82.6106,209.13 83.944,212.63 85.5,216C 85.1667,216.5 84.8333,217 84.5,217.5C 81.2781,213.305 78.6115,213.638 76.5,218.5C 75.7208,216.115 76.0542,213.782 77.5,211.5 Z"/></g>
<g><path style="opacity:1" fill="#9f9f9f" d="M 110.5,205.5 C 112.265,204.539 114.265,204.205 116.5,204.5C 116.5,205.5 116.5,206.5 116.5,207.5C 115.022,207.238 113.689,207.571 112.5,208.5C 113.325,209.386 114.325,209.719 115.5,209.5C 115.5,210.5 115.5,211.5 115.5,212.5C 114.5,212.5 113.5,212.5 112.5,212.5C 115.258,211.033 114.925,210.367 111.5,210.5C 111.5,209.167 111.5,207.833 111.5,206.5C 116.5,205.997 116.167,205.664 110.5,205.5 Z"/></g>
<g><path style="opacity:1" fill="#515151" d="M 167.5,207.5 C 168.183,209.176 169.517,209.843 171.5,209.5C 171.5,210.5 171.5,211.5 171.5,212.5C 170.167,212.5 168.833,212.5 167.5,212.5C 167.5,213.5 167.5,214.5 167.5,215.5C 168.609,216.29 169.942,216.79 171.5,217C 169.527,217.495 167.527,217.662 165.5,217.5C 165.5,213.5 165.5,209.5 165.5,205.5C 167.527,205.338 169.527,205.505 171.5,206C 169.942,206.21 168.609,206.71 167.5,207.5 Z"/></g>
<g><path style="opacity:1" fill="#acacac" d="M 167.5,207.5 C 168.609,206.71 169.942,206.21 171.5,206C 169.527,205.505 167.527,205.338 165.5,205.5C 165.5,209.5 165.5,213.5 165.5,217.5C 164.515,213.366 164.182,209.032 164.5,204.5C 167.167,204.5 169.833,204.5 172.5,204.5C 172.5,205.5 172.5,206.5 172.5,207.5C 170.833,207.5 169.167,207.5 167.5,207.5 Z"/></g>
<g><path style="opacity:1" fill="#afafaf" d="M 210.5,207.5 C 211.609,206.71 212.942,206.21 214.5,206C 212.527,205.505 210.527,205.338 208.5,205.5C 208.5,209.5 208.5,213.5 208.5,217.5C 207.515,213.366 207.182,209.032 207.5,204.5C 210.167,204.5 212.833,204.5 215.5,204.5C 215.5,205.5 215.5,206.5 215.5,207.5C 213.833,207.5 212.167,207.5 210.5,207.5 Z"/></g>
<g><path style="opacity:1" fill="#6e6e6e" d="M 235.5,201.5 C 236.376,201.369 237.043,201.702 237.5,202.5C 236.878,207.814 236.211,213.147 235.5,218.5C 234.215,212.78 234.215,207.113 235.5,201.5 Z"/></g>
<g><path style="opacity:1" fill="#3b3b3b" d="M 94.5,205.5 C 95.791,205.263 96.791,205.596 97.5,206.5C 96.1667,209.833 96.1667,213.167 97.5,216.5C 96.791,217.404 95.791,217.737 94.5,217.5C 94.5,213.5 94.5,209.5 94.5,205.5 Z"/></g>
<g><path style="opacity:1" fill="#b2b2b2" d="M 97.5,206.5 C 98.4916,206.328 99.1583,206.662 99.5,207.5C 98.2521,208.334 97.5854,209.667 97.5,211.5C 97.5854,213.333 98.2521,214.666 99.5,215.5C 99.1583,216.338 98.4916,216.672 97.5,216.5C 96.1667,213.167 96.1667,209.833 97.5,206.5 Z"/></g>
<g><path style="opacity:1" fill="#f7f7f7" d="M 99.5,207.5 C 100.725,208.152 101.392,209.319 101.5,211C 101.693,213.008 101.026,214.508 99.5,215.5C 98.2521,214.666 97.5854,213.333 97.5,211.5C 97.5854,209.667 98.2521,208.334 99.5,207.5 Z"/></g>
<g><path style="opacity:1" fill="#393939" d="M 110.5,205.5 C 116.167,205.664 116.5,205.997 111.5,206.5C 111.5,207.833 111.5,209.167 111.5,210.5C 114.925,210.367 115.258,211.033 112.5,212.5C 111.167,213.5 111.167,214.5 112.5,215.5C 113.263,216.268 114.263,216.768 115.5,217C 113.866,217.494 112.199,217.66 110.5,217.5C 110.5,213.5 110.5,209.5 110.5,205.5 Z"/></g>
<g><path style="opacity:1" fill="#545454" d="M 249.5,211.5 C 249.5,212.833 249.5,214.167 249.5,215.5C 247.064,213.983 244.898,214.316 243,216.5C 242.536,215.906 242.369,215.239 242.5,214.5C 242.332,210.453 243.665,207.12 246.5,204.5C 247.869,206.764 248.869,209.097 249.5,211.5 Z"/></g>
<g><path style="opacity:1" fill="#9e9e9e" d="M 79.5,205.5 C 80.146,207.181 80.8127,208.847 81.5,210.5C 81.1667,211.5 80.8333,212.5 80.5,213.5C 79.7189,212.271 79.2189,210.938 79,209.5C 78.7216,210.416 78.2216,211.082 77.5,211.5C 77.2594,209.102 77.9261,207.102 79.5,205.5 Z"/></g>
<g><path style="opacity:1" fill="#5c5c5c" d="M 138.5,205.5 C 141.452,206.359 143.285,208.359 144,211.5C 144.495,209.527 144.662,207.527 144.5,205.5C 145.5,205.5 146.5,205.5 147.5,205.5C 147.5,209.5 147.5,213.5 147.5,217.5C 146.325,217.719 145.325,217.386 144.5,216.5C 141.461,208.284 139.794,208.617 139.5,217.5C 138.509,213.555 138.176,209.555 138.5,205.5 Z"/></g>
<g><path style="opacity:1" fill="#3b3b3b" d="M 27.5,215.5 C 28.6085,216.29 29.9419,216.79 31.5,217C 29.8659,217.494 28.1992,217.66 26.5,217.5C 26.1667,217.5 25.8333,217.5 25.5,217.5C 24.6758,214.236 24.3424,210.902 24.5,207.5C 26.1239,204.572 28.4572,203.905 31.5,205.5C 26.1561,206.345 24.3227,209.345 26,214.5C 26.3826,215.056 26.8826,215.389 27.5,215.5 Z"/></g>
<g><path style="opacity:1" fill="#9a9a9a" d="M 58.5,206.5 C 57.6016,207.158 56.6016,207.824 55.5,208.5C 56.325,209.386 57.325,209.719 58.5,209.5C 58.5,210.5 58.5,211.5 58.5,212.5C 57.5,212.5 56.5,212.5 55.5,212.5C 58.2583,211.033 57.925,210.367 54.5,210.5C 54.5,209.167 54.5,207.833 54.5,206.5C 55.8333,206.5 57.1667,206.5 58.5,206.5 Z"/></g>
<g><path style="opacity:1" fill="#5b5b5b" d="M 94.5,205.5 C 99.943,203.563 103.276,205.563 104.5,211.5C 103.276,217.437 99.943,219.437 94.5,217.5C 95.791,217.737 96.791,217.404 97.5,216.5C 98.4916,216.672 99.1583,216.338 99.5,215.5C 101.026,214.508 101.693,213.008 101.5,211C 101.392,209.319 100.725,208.152 99.5,207.5C 99.1583,206.662 98.4916,206.328 97.5,206.5C 96.791,205.596 95.791,205.263 94.5,205.5 Z"/></g>
<g><path style="opacity:1" fill="#4c4c4c" d="M 210.5,207.5 C 210.5,208.167 210.5,208.833 210.5,209.5C 211.263,210.268 212.263,210.768 213.5,211C 212.263,211.232 211.263,211.732 210.5,212.5C 210.5,213.5 210.5,214.5 210.5,215.5C 211.609,216.29 212.942,216.79 214.5,217C 212.527,217.495 210.527,217.662 208.5,217.5C 208.5,213.5 208.5,209.5 208.5,205.5C 210.527,205.338 212.527,205.505 214.5,206C 212.942,206.21 211.609,206.71 210.5,207.5 Z"/></g>
<g><path style="opacity:1" fill="#7e7e7e" d="M -0.5,205.5 C -0.5,205.167 -0.5,204.833 -0.5,204.5C 1.92397,204.192 4.25731,204.526 6.5,205.5C 5.17627,206.935 3.50961,207.935 1.5,208.5C 2.32496,209.386 3.32496,209.719 4.5,209.5C 4.5,210.5 4.5,211.5 4.5,212.5C 3.5,212.5 2.5,212.5 1.5,212.5C 1.5,213.5 1.5,214.5 1.5,215.5C 3.16667,215.5 4.83333,215.5 6.5,215.5C 6.5,216.5 6.5,217.5 6.5,218.5C 4.16667,218.5 1.83333,218.5 -0.5,218.5C -0.5,217.833 -0.5,217.167 -0.5,216.5C 0.479442,213.375 0.812775,210.042 0.5,206.5C 5.50002,205.997 5.16669,205.664 -0.5,205.5 Z"/></g>
<g><path style="opacity:1" fill="#8e8e8e" d="M 67.5,215.5 C 68.8333,215.5 70.1667,215.5 71.5,215.5C 71.5,216.5 71.5,217.5 71.5,218.5C 69.1667,218.5 66.8333,218.5 64.5,218.5C 64.5,213.833 64.5,209.167 64.5,204.5C 65.5,204.5 66.5,204.5 67.5,204.5C 67.5,208.167 67.5,211.833 67.5,215.5 Z"/></g>
<g><path style="opacity:1" fill="#4f4f4f" d="M 67.5,215.5 C 68.2625,216.268 69.2625,216.768 70.5,217C 68.8659,217.494 67.1992,217.66 65.5,217.5C 65.3345,213.486 65.5012,209.486 66,205.5C 66.1787,209.025 66.6787,212.359 67.5,215.5 Z"/></g>
<g><path style="opacity:1" fill="#afafaf" d="M 155.5,207.5 C 156.263,206.732 157.263,206.232 158.5,206C 156.866,205.506 155.199,205.34 153.5,205.5C 153.5,209.5 153.5,213.5 153.5,217.5C 152.515,213.366 152.182,209.032 152.5,204.5C 155.247,204.187 157.914,204.52 160.5,205.5C 159.332,207.217 157.665,207.884 155.5,207.5 Z"/></g>
<g><path style="opacity:1" fill="#4f4f4f" d="M 178.5,204.5 C 185.45,204.234 187.117,207.068 183.5,213C 185.029,214.582 185.529,216.415 185,218.5C 183.692,216.359 182.192,214.359 180.5,212.5C 182.086,210.827 182.753,208.827 182.5,206.5C 181.5,206.5 180.5,206.5 179.5,206.5C 179.665,210.182 179.499,213.848 179,217.5C 178.501,213.179 178.334,208.846 178.5,204.5 Z"/></g>
<g><path style="opacity:1" fill="#9d9d9d" d="M 210.5,209.5 C 211.833,209.5 213.167,209.5 214.5,209.5C 214.5,210.5 214.5,211.5 214.5,212.5C 213.167,212.5 211.833,212.5 210.5,212.5C 211.263,211.732 212.263,211.232 213.5,211C 212.263,210.768 211.263,210.268 210.5,209.5 Z"/></g>
<g><path style="opacity:1" fill="#c9c9c9" d="M 245.5,208.5 C 247.561,209.751 247.894,211.418 246.5,213.5C 245.548,211.955 245.215,210.288 245.5,208.5 Z"/></g>
<g><path style="opacity:1" fill="#414141" d="M 199.5,205.5 C 200.787,206.871 201.453,208.705 201.5,211C 201.333,212.833 201.167,214.667 201,216.5C 200.808,214.423 200.308,212.423 199.5,210.5C 198.893,210.624 198.56,210.957 198.5,211.5C 198.585,212.995 197.919,213.995 196.5,214.5C 195.5,213.167 194.5,211.833 193.5,210.5C 192.686,212.766 192.186,215.1 192,217.5C 191.173,213.459 191.34,209.459 192.5,205.5C 194.817,207.242 196.317,209.576 197,212.5C 197.744,210.1 198.577,207.767 199.5,205.5 Z"/></g>
<g><path style="opacity:1" fill="#626262" d="M 12.5,204.5 C 14.288,204.215 15.9547,204.548 17.5,205.5C 16.3112,206.429 14.9778,206.762 13.5,206.5C 13.3505,207.552 13.5172,208.552 14,209.5C 18.7072,211.283 19.5405,214.116 16.5,218C 14.5273,218.495 12.5273,218.662 10.5,218.5C 10.5,217.5 10.5,216.5 10.5,215.5C 12.1667,215.5 13.8333,215.5 15.5,215.5C 15.3385,213.176 14.1718,211.509 12,210.5C 11.3224,208.402 11.4891,206.402 12.5,204.5 Z"/></g>
<g><path style="opacity:1" fill="#4d4d4d" d="M 155.5,207.5 C 155.5,208.5 155.5,209.5 155.5,210.5C 159.5,211.167 159.5,211.833 155.5,212.5C 155.923,214.781 155.256,216.448 153.5,217.5C 153.5,213.5 153.5,209.5 153.5,205.5C 155.199,205.34 156.866,205.506 158.5,206C 157.263,206.232 156.263,206.732 155.5,207.5 Z"/></g>
<g><path style="opacity:1" fill="#888888" d="M 199.5,205.5 C 200.209,204.596 201.209,204.263 202.5,204.5C 202.5,208.833 202.5,213.167 202.5,217.5C 201.5,217.5 200.5,217.5 199.5,217.5C 199.795,215.265 199.461,213.265 198.5,211.5C 198.56,210.957 198.893,210.624 199.5,210.5C 200.308,212.423 200.808,214.423 201,216.5C 201.167,214.667 201.333,212.833 201.5,211C 201.453,208.705 200.787,206.871 199.5,205.5 Z"/></g>
<g><path style="opacity:1" fill="#4a4a4a" d="M 221.5,204.5 C 228.464,204.289 230.131,207.122 226.5,213C 228.029,214.582 228.529,216.415 228,218.5C 226.692,216.359 225.192,214.359 223.5,212.5C 225.086,210.827 225.753,208.827 225.5,206.5C 224.5,206.5 223.5,206.5 222.5,206.5C 222.665,210.182 222.499,213.848 222,217.5C 221.501,213.179 221.334,208.846 221.5,204.5 Z"/></g>
<g><path style="opacity:1" fill="#acacac" d="M 24.5,207.5 C 24.3424,210.902 24.6758,214.236 25.5,217.5C 24.8826,217.389 24.3826,217.056 24,216.5C 23.1955,213.304 23.3622,210.304 24.5,207.5 Z"/></g>
<g><path style="opacity:1" fill="#686868" d="M 126.5,204.5 C 128.604,204.201 130.604,204.534 132.5,205.5C 131.311,206.429 129.978,206.762 128.5,206.5C 128.5,207.5 128.5,208.5 128.5,209.5C 129.5,209.5 130.5,209.5 131.5,209.5C 131.5,210.5 131.5,211.5 131.5,212.5C 130.5,212.5 129.5,212.5 128.5,212.5C 128.5,213.5 128.5,214.5 128.5,215.5C 130.167,215.5 131.833,215.5 133.5,215.5C 133.5,216.5 133.5,217.5 133.5,218.5C 130.881,218.768 128.381,218.435 126,217.5C 125.232,213.08 125.398,208.747 126.5,204.5 Z"/></g>
<g><path style="opacity:1" fill="#b0b0b0" d="M 242.5,214.5 C 242.369,215.239 242.536,215.906 243,216.5C 244.898,214.316 247.064,213.983 249.5,215.5C 249.5,216.167 249.5,216.833 249.5,217.5C 246.949,216.051 244.615,216.385 242.5,218.5C 241.218,217.042 241.218,215.708 242.5,214.5 Z"/></g>
<g><path style="opacity:1" fill="#4d4d4d" d="M 38.5,205.5 C 39.4794,208.625 39.8128,211.958 39.5,215.5C 41.1667,215.5 42.8333,215.5 44.5,215.5C 44.1796,212.102 44.513,208.768 45.5,205.5C 46.9799,209.86 46.6465,214.026 44.5,218C 42.5594,218.743 40.7261,218.576 39,217.5C 38.5012,213.514 38.3345,209.514 38.5,205.5 Z"/></g>
<g><path style="opacity:1" fill="#8e8e8e" d="M 27.5,215.5 C 29.1667,215.5 30.8333,215.5 32.5,215.5C 32.5,216.5 32.5,217.5 32.5,218.5C 30.2646,218.795 28.2646,218.461 26.5,217.5C 28.1992,217.66 29.8659,217.494 31.5,217C 29.9419,216.79 28.6085,216.29 27.5,215.5 Z"/></g>
<g><path style="opacity:1" fill="#979797" d="M 55.5,215.5 C 56.8333,215.5 58.1667,215.5 59.5,215.5C 59.5,216.5 59.5,217.5 59.5,218.5C 56.9407,218.802 54.6074,218.468 52.5,217.5C 54.5273,217.662 56.5273,217.495 58.5,217C 57.2625,216.768 56.2625,216.268 55.5,215.5 Z"/></g>
<g><path style="opacity:1" fill="#8d8d8d" d="M 110.5,205.5 C 110.5,209.5 110.5,213.5 110.5,217.5C 112.199,217.66 113.866,217.494 115.5,217C 114.263,216.768 113.263,216.268 112.5,215.5C 113.833,215.5 115.167,215.5 116.5,215.5C 116.5,216.5 116.5,217.5 116.5,218.5C 114.167,218.5 111.833,218.5 109.5,218.5C 109.182,213.968 109.515,209.634 110.5,205.5 Z"/></g>
<g><path style="opacity:1" fill="#959595" d="M 167.5,215.5 C 169.167,215.5 170.833,215.5 172.5,215.5C 172.5,216.5 172.5,217.5 172.5,218.5C 169.941,218.802 167.607,218.468 165.5,217.5C 167.527,217.662 169.527,217.495 171.5,217C 169.942,216.79 168.609,216.29 167.5,215.5 Z"/></g>
<g><path style="opacity:1" fill="#939393" d="M 210.5,215.5 C 212.167,215.5 213.833,215.5 215.5,215.5C 215.5,216.5 215.5,217.5 215.5,218.5C 212.941,218.802 210.607,218.468 208.5,217.5C 210.527,217.662 212.527,217.495 214.5,217C 212.942,216.79 211.609,216.29 210.5,215.5 Z"/></g>
<g><path style="opacity:1" fill="#979797" d="M 73.5,222.5 C 74.9778,222.238 76.3112,222.571 77.5,223.5C 76.8333,223.833 76.1667,224.167 75.5,224.5C 74.2867,224.253 73.62,223.586 73.5,222.5 Z"/></g>
<g><path style="opacity:1" fill="#696969" d="M 108.5,225.5 C 109.5,225.5 110.5,225.5 111.5,225.5C 112.329,228.469 112.495,231.469 112,234.5C 110.333,233.167 108.667,233.167 107,234.5C 106.404,231.314 106.904,228.314 108.5,225.5 Z"/></g>
<g><path style="opacity:1" fill="#767676" d="M 137.5,236.5 C 135.833,236.5 134.167,236.5 132.5,236.5C 132.5,232.833 132.5,229.167 132.5,225.5C 134.199,225.34 135.866,225.506 137.5,226C 133.544,227.114 133.544,227.947 137.5,228.5C 137.5,229.5 137.5,230.5 137.5,231.5C 133.5,232.167 133.5,232.833 137.5,233.5C 137.5,234.5 137.5,235.5 137.5,236.5 Z"/></g>
<g><path style="opacity:1" fill="#707070" d="M 163.5,236.5 C 162.5,236.5 161.5,236.5 160.5,236.5C 154.888,231.349 155.388,226.682 162,222.5C 163.359,224.922 164.525,227.422 165.5,230C 165.518,232.442 164.851,234.608 163.5,236.5 Z"/></g>
<g><path style="opacity:1" fill="#f0f0f0" d="M 160.5,226.5 C 162.722,226.559 163.722,227.725 163.5,230C 163.576,232.756 162.243,233.923 159.5,233.5C 159.298,231.05 159.631,228.717 160.5,226.5 Z"/></g>
<g><path style="opacity:1" fill="#737373" d="M 85.5,225.5 C 87.8881,226.219 89.3881,227.885 90,230.5C 90.7975,232.259 90.6309,233.926 89.5,235.5C 87.5423,234.015 85.5423,233.181 83.5,233C 84.1083,230.447 84.775,227.947 85.5,225.5 Z"/></g>
<g><path style="opacity:1" fill="#686868" d="M 174.5,229.5 C 175.404,230.209 175.737,231.209 175.5,232.5C 174.883,232.611 174.383,232.944 174,233.5C 173.333,232.167 172.667,230.833 172,229.5C 171.503,231.81 171.337,234.143 171.5,236.5C 170.833,236.5 170.167,236.5 169.5,236.5C 169.5,232.833 169.5,229.167 169.5,225.5C 170.552,225.351 171.552,225.517 172.5,226C 172.945,228.02 173.611,229.187 174.5,229.5 Z"/></g>
<g><path style="opacity:1" fill="#797979" d="M 189.5,236.5 C 187.5,236.5 185.5,236.5 183.5,236.5C 183.5,232.833 183.5,229.167 183.5,225.5C 185.199,225.34 186.866,225.506 188.5,226C 184.544,227.114 184.544,227.947 188.5,228.5C 188.5,229.5 188.5,230.5 188.5,231.5C 187.325,231.281 186.325,231.614 185.5,232.5C 186.689,233.429 188.022,233.762 189.5,233.5C 189.5,234.5 189.5,235.5 189.5,236.5 Z"/></g>
<g><path style="opacity:1" fill="#797979" d="M 67.5,233.5 C 65.7921,233.623 63.9588,233.956 62,234.5C 61.5172,233.552 61.3505,232.552 61.5,231.5C 61.3243,227.808 62.9909,225.808 66.5,225.5C 66.8333,228.167 67.1667,230.833 67.5,233.5 Z"/></g>
<g><path style="opacity:1" fill="#5e5e5e" d="M 125.5,236.5 C 123.833,236.5 122.167,236.5 120.5,236.5C 120.5,232.833 120.5,229.167 120.5,225.5C 129.033,225.727 130.7,229.394 125.5,236.5 Z"/></g>
<g><path style="opacity:1" fill="#eeeeee" d="M 122.5,226.5 C 126.252,227.306 127.252,229.472 125.5,233C 124.552,233.483 123.552,233.649 122.5,233.5C 122.5,231.167 122.5,228.833 122.5,226.5 Z"/></g>
<g><path style="opacity:1" fill="#6e6e6e" d="M 75.5,230.5 C 74.8826,230.389 74.3826,230.056 74,229.5C 73.8078,231.577 73.3078,233.577 72.5,235.5C 71.513,232.232 71.1796,228.898 71.5,225.5C 74.4701,225.746 75.8034,227.412 75.5,230.5 Z"/></g>
<g><path style="opacity:1" fill="#5f5f5f" d="M 75.5,230.5 C 76.1174,230.611 76.6174,230.944 77,231.5C 77.1922,229.423 77.6922,227.423 78.5,225.5C 79.8333,228.833 79.8333,232.167 78.5,235.5C 76.7377,234.312 75.7377,232.645 75.5,230.5 Z"/></g>
<g><path style="opacity:1" fill="#aeaeae" d="M 176.5,225.5 C 177.812,237.413 178.479,237.413 178.5,225.5C 179.482,228.962 179.815,232.629 179.5,236.5C 178.5,236.5 177.5,236.5 176.5,236.5C 176.768,234.901 176.434,233.568 175.5,232.5C 175.737,231.209 175.404,230.209 174.5,229.5C 174.989,228.005 175.655,226.671 176.5,225.5 Z"/></g>
<g><path style="opacity:1" fill="#4e4e4e" d="M 176.5,225.5 C 177.167,225.5 177.833,225.5 178.5,225.5C 178.479,237.413 177.812,237.413 176.5,225.5 Z"/></g>
<g><path style="opacity:1" fill="#6a6a6a" d="M 152.5,236.5 C 151.167,236.5 149.833,236.5 148.5,236.5C 145.526,233.703 144.859,230.37 146.5,226.5C 148.098,225.515 149.765,225.349 151.5,226C 147.81,226.69 146.643,228.857 148,232.5C 149.813,233.609 150.646,232.942 150.5,230.5C 151.5,230.5 152.5,230.5 153.5,230.5C 153.483,232.565 153.15,234.565 152.5,236.5 Z"/></g>
<g><path style="opacity:1" fill="#727272" d="M 199.5,236.5 C 197.167,236.5 194.833,236.5 192.5,236.5C 193.484,233.035 195.15,229.869 197.5,227C 192.459,225.992 192.792,225.492 198.5,225.5C 198.377,228.374 197.377,230.874 195.5,233C 196.793,233.49 198.127,233.657 199.5,233.5C 199.5,234.5 199.5,235.5 199.5,236.5 Z"/></g>
<g><path style="opacity:0.849" fill="#efefef" d="M 175.5,232.5 C 176.434,233.568 176.768,234.901 176.5,236.5C 174.833,236.5 173.167,236.5 171.5,236.5C 171.337,234.143 171.503,231.81 172,229.5C 172.667,230.833 173.333,232.167 174,233.5C 174.383,232.944 174.883,232.611 175.5,232.5 Z"/></g>
<g><path style="opacity:0.812" fill="#d3d3d3" d="M 61.5,231.5 C 61.3505,232.552 61.5172,233.552 62,234.5C 63.9588,233.956 65.7921,233.623 67.5,233.5C 68.404,234.209 68.7373,235.209 68.5,236.5C 65.5,236.5 62.5,236.5 59.5,236.5C 59.4021,234.447 60.0687,232.78 61.5,231.5 Z"/></g>
<g><path style="opacity:1" fill="#5f5f5f" d="M 99.5,236.5 C 97.8333,236.5 96.1667,236.5 94.5,236.5C 94.5,232.833 94.5,229.167 94.5,225.5C 96.7925,225.244 98.9592,225.577 101,226.5C 101.963,230.149 101.463,233.482 99.5,236.5 Z"/></g>
<g><path style="opacity:1" fill="#eaeaea" d="M 96.5,226.5 C 100.473,227.075 101.473,229.242 99.5,233C 98.552,233.483 97.552,233.649 96.5,233.5C 96.5,231.167 96.5,228.833 96.5,226.5 Z"/></g>
<g><path style="opacity:0.624" fill="#636363" d="M 56.5,236.5 C 55.1667,236.5 53.8333,236.5 52.5,236.5C 50.9837,234.801 49.9837,232.801 49.5,230.5C 49.8954,225.987 52.2288,224.487 56.5,226C 55.1667,226.333 53.8333,226.667 52.5,227C 50.3391,231.448 51.6724,233.615 56.5,233.5C 56.5,234.5 56.5,235.5 56.5,236.5 Z"/></g>
</svg>
